<svg width="45" height="41" viewBox="0 0 45 41" fill="none" xmlns="http://www.w3.org/2000/svg">
<path d="M22.5 40.1875L28.6523 40.1864C29.1018 40.1864 29.5516 40.1351 29.9885 40.0344L40.4474 37.6239C43.1156 37.009 45 34.6522 45 31.9502V13.8709C45 11.7751 43.8548 9.83222 42.0113 8.80047L33.3981 3.97941C30.3739 2.28654 27.4863 3.46753 25.293 6.1532L12.5552 1.25269C9.22526 -0.0286704 5.47014 1.58026 4.14914 4.87387C2.82217 8.18225 4.46862 11.9376 7.83545 13.2333L14.7656 14.875L6.50391 14.0716C2.91762 14.0716 0 16.9554 0 20.4999C0 24.0446 2.91762 26.9284 6.50391 26.9284H14.2062C13.8832 29.235 14.9701 31.4369 16.8729 32.6418C15.7023 36.3851 18.5488 40.1875 22.5 40.1875ZM22.5 35.9676C20.2887 35.9676 20.2922 32.7537 22.5 32.7537C23.2767 32.7537 23.9062 32.1242 23.9062 31.3475V30.7449C23.9062 29.9682 23.2767 29.3387 22.5 29.3387H20.0391C17.8278 29.3387 17.8311 26.1248 20.0391 26.1248H22.5C23.2767 26.1248 23.9062 25.4952 23.9062 24.7185V24.1159C23.9062 23.3393 23.2767 22.7097 22.5 22.7097H6.50391C3.47783 22.7097 3.48267 18.2905 6.50391 18.2905H22.5C23.2767 18.2905 23.9062 17.6609 23.9062 16.8842V15.8619C23.9063 15.5777 23.8201 15.3001 23.6593 15.0658C23.4984 14.8315 23.2703 14.6515 23.005 14.5494L9.3506 9.29485C6.57747 8.22786 8.17005 4.08443 11.04 5.18887L25.6781 10.8219C25.9545 10.9282 26.2575 10.9446 26.5438 10.8687C26.83 10.7927 27.085 10.6283 27.2724 10.3989L29.1852 8.05692C29.6967 7.43052 30.6221 7.26027 31.3375 7.6607L39.9508 12.4819C40.463 12.7686 40.7812 13.3008 40.7812 13.871V31.9502C40.7812 32.6964 40.2544 33.3392 39.5002 33.513L29.0411 35.9236C28.9136 35.9529 28.7832 35.9677 28.6523 35.9677H22.5V35.9676Z" fill="white"/>
</svg>
