<svg width="16" height="16" viewBox="0 0 16 16" fill="none" xmlns="http://www.w3.org/2000/svg">
<g clip-path="url(#clip0)">
<path d="M3.73906 3.24421L10.1175 1.50317L9.77971 0.820403C9.55871 0.376608 9.01969 0.19334 8.57589 0.414339L2.86584 3.24421H3.73906Z" fill="#828282"/>
<path d="M12.0975 1.55347C12.0184 1.55347 11.9394 1.56425 11.8603 1.58581L10.3618 1.99546L5.78552 3.24419H10.9799H13.2438L12.9635 2.21646C12.8557 1.81579 12.4928 1.55347 12.0975 1.55347Z" fill="#828282"/>
<path d="M14.1799 3.87305H13.9751H13.6966H13.4181H11.2925H3.48209H2.45795H1.59551H1.4356H0.900168C0.616283 3.87305 0.362942 4.00421 0.197642 4.21083C0.122179 4.30606 0.0646828 4.41566 0.0323414 4.53605C0.0125772 4.61151 0 4.69057 0 4.77142V4.87922V5.90337V14.7811C0 15.277 0.402471 15.6794 0.898372 15.6794H14.1781C14.674 15.6794 15.0765 15.277 15.0765 14.7811V12.2746H9.74554C8.90286 12.2746 8.2183 11.5901 8.2183 10.7474V9.92448V9.64598V9.36749V8.74941C8.2183 8.33616 8.38359 7.96066 8.65132 7.68575C8.88849 7.44138 9.20651 7.27608 9.56227 7.23475C9.62156 7.22759 9.68265 7.22397 9.74374 7.22397H14.329H14.6075H14.886H15.0765V4.77142C15.0783 4.27552 14.6758 3.87305 14.1799 3.87305Z" fill="#828282"/>
<path d="M15.7073 8.08289C15.6175 8.00024 15.5115 7.93735 15.3929 7.89603C15.3012 7.8655 15.2042 7.84753 15.1018 7.84753H15.0785H15.0605H14.782H13.7776H9.74567C9.24975 7.84753 8.84729 8.24999 8.84729 8.74591V9.19328V9.47177V9.75027V10.7457C8.84729 11.2416 9.24975 11.644 9.74567 11.644H15.0785H15.1018C15.2042 11.644 15.3013 11.6261 15.3929 11.5955C15.5115 11.556 15.6175 11.4913 15.7073 11.4087C15.887 11.2452 16.0002 11.008 16.0002 10.7457V8.74591C16.0002 8.48356 15.887 8.24638 15.7073 8.08289ZM11.6215 9.92455C11.6215 10.1725 11.4203 10.3737 11.1723 10.3737H10.874C10.6261 10.3737 10.4248 10.1725 10.4248 9.92455V9.62629C10.4248 9.48255 10.4913 9.35497 10.5973 9.27411C10.6746 9.21482 10.7698 9.17711 10.874 9.17711H10.9495H11.1723C11.4203 9.17711 11.6215 9.37832 11.6215 9.62629V9.92455Z" fill="#828282"/>
</g>
<defs>
<clipPath id="clip0">
<rect width="16" height="16" fill="white"/>
</clipPath>
</defs>
</svg>
