<svg width="16" height="15" viewBox="0 0 16 15" fill="none" xmlns="http://www.w3.org/2000/svg">
<path d="M2.32597 7H0.674345C0.301988 7 0 7.27566 0 7.61556V14.3847C0 14.7243 0.301988 15 0.674345 15H2.32597C2.69833 15 3 14.7243 3 14.3847V7.61556C3 7.27566 2.69833 7 2.32597 7Z" fill="#828282"/>
<path d="M6.32597 9H4.67435C4.30167 9 4 9.26877 4 9.60017V14.3998C4 14.7315 4.30167 15 4.67435 15H6.32597C6.69833 15 7 14.7312 7 14.3998V9.60017C7 9.26877 6.69833 9 6.32597 9Z" fill="#828282"/>
<path d="M11.3257 9H9.67403C9.30167 9 9 9.26877 9 9.60017V14.3998C9 14.7315 9.30167 15 9.67403 15H11.3257C11.6983 15 12 14.7312 12 14.3998V9.60017C12 9.26877 11.6983 9 11.3257 9Z" fill="#828282"/>
<path d="M15.3257 7H13.674C13.3017 7 13 7.27566 13 7.61556V14.3847C13 14.7246 13.3017 15 13.674 15H15.3257C15.698 15 16 14.724 16 14.3847V7.61556C16 7.27566 15.698 7 15.3257 7Z" fill="#828282"/>
<path d="M8.21204 4.83447V6.27919C8.60829 6.25027 9.02599 6.04517 9.02599 5.56397C9.02599 5.06737 8.56812 4.922 8.21204 4.83447Z" fill="#828282"/>
<path d="M7.07336 3.10543C7.07336 3.47056 7.31949 3.68167 7.81549 3.79136V2.4845C7.36477 2.49915 7.07336 2.7914 7.07336 3.10543Z" fill="#828282"/>
<path d="M8 0C5.79438 0 4 1.98038 4 4.41379C4 6.84645 5.79438 8.82683 8 8.82683C10.2056 8.82683 12 6.84645 12 4.41379C12 1.98038 10.2056 0 8 0ZM8.21208 7.02413V7.47603C8.21208 7.60036 8.12562 7.72433 8.0126 7.72433C7.90094 7.72433 7.81549 7.60036 7.81549 7.47603V7.02413C6.69787 6.99408 6.14196 6.25707 6.14196 5.68046C6.14196 5.38934 6.30162 5.22105 6.55149 5.22105C7.29226 5.22105 6.71626 6.22814 7.81549 6.27886V4.75375C6.83506 4.55729 6.24136 4.08285 6.24136 3.27297C6.24136 2.2809 6.98894 1.76927 7.81549 1.74072V1.35156C7.81549 1.22722 7.90094 1.10326 8.0126 1.10326C8.12562 1.10326 8.21208 1.22722 8.21208 1.35156V1.74072C8.72749 1.75575 9.78587 2.11261 9.78587 2.82821C9.78587 3.11257 9.59319 3.28011 9.36817 3.28011C8.93787 3.28011 8.944 2.4999 8.21208 2.48487V3.87137C9.08494 4.07609 9.85804 4.36045 9.85804 5.48437C9.85804 6.46179 9.19694 6.95764 8.21208 7.02413Z" fill="#828282"/>
</svg>
