<?xml version="1.0" encoding="UTF-8"?>
<svg width="65px" height="75px" viewBox="0 0 65 75" version="1.1" xmlns="http://www.w3.org/2000/svg" xmlns:xlink="http://www.w3.org/1999/xlink">
    <title>game-icon-paper-big</title>
    <g id="Page-1" stroke="none" stroke-width="1" fill="none" fill-rule="evenodd">
        <g id="game-icon-paper-big" fill="#FFFFFF" fill-rule="nonzero">
            <path d="M54.0563,16.3426 L54.0563,14.772 C54.0563,8.44434 48.1773,3.64493 42.0082,5.26195 C38.2898,-1.91996 28.3568,-1.62253 24.8903,5.37034 C18.9011,3.83805 12.9343,8.40676 12.9343,14.7987 L12.9343,33.0988 C10.0393,32.0212 6.65074,32.3635 3.92669,34.3859 C-0.332402,37.5482 -1.26663,43.5748 1.81564,47.9014 L19.2218,72.3366 C19.6512,72.9392 20.2184,73.4305 20.8762,73.7695 C21.5339,74.1085 22.2632,74.2854 23.0032,74.2854 L55.3431,74.2854 C57.5055,74.2854 59.3817,72.7926 59.8673,70.6853 L64.2466,51.6847 C64.7471,49.5117 65.0004,47.289 65.0004,45.0591 L65.0004,25.9705 C65.0004,20.077 59.8464,15.5253 54.0563,16.3426 Z M58.0357,45.0589 C58.0357,46.761 57.8421,48.464 57.4604,50.1205 L53.4958,67.321 L24.1994,67.321 L7.48573,43.8605 C5.39079,40.9195 9.6654,37.6541 11.7505,40.5807 L15.6865,46.1056 C16.9915,47.9375 19.8985,47.0178 19.8985,44.7587 L19.8985,14.7987 C19.8985,11.0779 25.2046,11.199 25.2046,14.8989 L25.2046,37.1424 C25.2046,38.4246 26.2439,39.4638 27.526,39.4638 L28.5208,39.4638 C29.8029,39.4638 30.8422,38.4246 30.8422,37.1424 L30.8422,9.72055 C30.8422,5.99712 36.1482,6.12088 36.1482,9.8208 L36.1482,37.1424 C36.1482,38.4246 37.1875,39.4638 38.4697,39.4638 L39.4644,39.4638 C40.7465,39.4638 41.7858,38.4246 41.7858,37.1424 L41.7858,14.6717 C41.7858,10.947 47.0917,11.0721 47.0917,14.772 L47.0917,37.1424 C47.0917,38.4246 48.131,39.4638 49.4132,39.4638 L50.408,39.4638 C51.6902,39.4638 52.7295,38.4246 52.7295,37.1424 L52.7295,26.0708 C52.7295,22.2634 58.0357,22.3507 58.0357,25.9705 L58.0357,45.0589 L58.0357,45.0589 Z" id="Shape"></path>
        </g>
    </g>
</svg>