<svg width="45" height="45" viewBox="0 0 45 45" fill="none" xmlns="http://www.w3.org/2000/svg">
<path d="M22.5 42.1875L28.6523 42.1864C29.1018 42.1864 29.5516 42.1351 29.9885 42.0344L40.4474 39.6239C43.1156 39.009 45 36.6522 45 33.9502V15.8709C45 13.7751 43.8548 11.8322 42.0113 10.8005L33.3981 5.97941C30.3739 4.28654 27.4863 5.46753 25.293 8.1532L12.5552 3.25269C9.22526 1.97133 5.47014 3.58026 4.14914 6.87387C2.82217 10.1822 4.46862 13.9376 7.83545 15.2333L14.7656 16.875L6.50391 16.0716C2.91762 16.0716 0 18.9554 0 22.4999C0 26.0446 2.91762 28.9284 6.50391 28.9284H14.2062C13.8832 31.235 14.9701 33.4369 16.8729 34.6418C15.7023 38.3851 18.5488 42.1875 22.5 42.1875ZM22.5 37.9676C20.2887 37.9676 20.2922 34.7537 22.5 34.7537C23.2767 34.7537 23.9062 34.1242 23.9062 33.3475V32.7449C23.9062 31.9682 23.2767 31.3387 22.5 31.3387H20.0391C17.8278 31.3387 17.8311 28.1248 20.0391 28.1248H22.5C23.2767 28.1248 23.9062 27.4952 23.9062 26.7185V26.1159C23.9062 25.3393 23.2767 24.7097 22.5 24.7097H6.50391C3.47783 24.7097 3.48267 20.2905 6.50391 20.2905H22.5C23.2767 20.2905 23.9062 19.6609 23.9062 18.8842V17.8619C23.9063 17.5777 23.8201 17.3001 23.6593 17.0658C23.4984 16.8315 23.2703 16.6515 23.005 16.5494L9.3506 11.2949C6.57747 10.2279 8.17005 6.08443 11.04 7.18887L25.6781 12.8219C25.9545 12.9282 26.2575 12.9446 26.5438 12.8687C26.83 12.7927 27.085 12.6283 27.2724 12.3989L29.1852 10.0569C29.6967 9.43052 30.6221 9.26027 31.3375 9.6607L39.9508 14.4819C40.463 14.7686 40.7812 15.3008 40.7812 15.871V33.9502C40.7812 34.6964 40.2544 35.3392 39.5002 35.513L29.0411 37.9236C28.9136 37.9529 28.7832 37.9677 28.6523 37.9677H22.5V37.9676Z" fill="#2F80ED"/>
</svg>
