<svg width="200" height="160" viewBox="0 0 200 160" fill="none" xmlns="http://www.w3.org/2000/svg">
<rect width="160" height="199" transform="matrix(0 1 1 0 0.5 0)" fill="url(#paint0_linear)"/>
<g clip-path="url(#clip0)">
<g filter="url(#filter0_d)">
<path d="M29.9558 67.1695H20.1742C18.4213 67.1695 17 68.5908 17 70.3437V104.605C17 106.358 18.4213 107.78 20.1742 107.78H29.9558C31.7088 107.78 33.1301 106.358 33.1301 104.605V70.3437C33.1301 68.5908 31.7088 67.1695 29.9558 67.1695Z" fill="white"/>
<path d="M73.5925 73.5442C73.5948 73.5442 73.5967 73.5438 73.599 73.5434C73.5974 73.523 73.5955 73.5317 73.5925 73.5442Z" fill="white"/>
<path d="M73.5925 73.543C73.5884 73.5433 73.584 73.544 73.5799 73.5443C73.585 73.5707 73.5895 73.5563 73.5925 73.543Z" fill="white"/>
<path d="M94.8885 80.1424C94.4019 77.6539 91.8107 75.6424 89.2749 75.6424H87.7152C89.5718 74.493 90.716 72.3026 90.3122 69.8811C89.8816 67.3015 87.2734 65.212 84.6582 65.212H80.4984C80.6831 67.4034 79.9523 69.3896 78.61 70.893C77.5817 72.0458 76.2562 72.9308 74.7874 73.3313C74.8045 73.4578 74.799 73.4181 74.8161 73.5447H78.2048C78.7396 73.5447 79.2632 73.7687 79.5922 74.1903C80.4806 75.3284 79.6168 76.8762 78.2889 76.8762H69.2942C68.9912 76.8762 68.692 76.9583 68.4369 77.1218C67.1787 77.9285 66.3984 79.3183 66.3984 80.8507C66.3984 82.3691 67.1644 83.7476 68.402 84.557L68.4218 84.57C68.6862 84.7396 68.994 84.8299 69.3079 84.8299H80.3401C81.6372 84.8299 82.5093 86.3117 81.6827 87.4748C81.365 87.9217 80.8284 88.1615 80.2799 88.1615H69.312C68.9926 88.1615 68.68 88.2538 68.4123 88.4275L68.4017 88.4344C67.164 89.2442 66.398 90.6223 66.398 92.1411C66.398 93.6738 67.1784 95.0636 68.4365 95.8697C68.6913 96.0331 68.9909 96.1152 69.2935 96.1152H76.9207C78.0044 96.1152 78.9411 97.2249 78.4544 98.4468C78.2075 99.0661 77.5769 99.4467 76.9101 99.4467H69.327C69.0152 99.4467 68.706 99.5302 68.443 99.6981C67.1811 100.504 66.398 101.896 66.398 103.431C66.398 105.539 67.9085 107.367 69.9559 107.78H80.2433C82.8588 107.78 85.467 105.691 85.8976 103.111C86.3015 100.689 85.1569 98.4988 83.2999 97.3497H85.0361C87.6516 97.3497 90.2598 95.2599 90.6904 92.68C91.0943 90.2585 89.9497 88.0681 88.0927 86.9191H89.3615C92.8476 86.9187 95.5947 83.7551 94.8885 80.1424Z" fill="white"/>
<path d="M65.4942 75.2057C67.4831 73.5078 69.9734 73.2643 69.9734 73.2643L62.164 66.3601C61.5724 65.8321 61.492 64.8933 62.0453 64.2733C62.5887 63.6643 63.5223 63.6106 64.1324 64.1547L69.8896 69.2936C70.8092 70.1147 71.9976 70.5329 73.2235 70.4583C74.4543 70.3889 75.5835 69.8438 76.4043 68.9246C78.1056 67.0184 77.9346 64.1051 76.0353 62.4099L65.937 53.395C64.0924 51.7491 61.295 51.8431 59.5663 53.6101L59.5225 53.6529C48.2941 64.2142 46.8523 65.525 44.177 68.2587C41.0116 71.762 38.8059 74.8442 38.8059 79.3268V92.8476C38.8059 101.081 45.5049 107.78 53.7387 107.78C57.0234 107.78 60.5714 107.78 64.4012 107.78C63.5428 106.514 63.0668 105.003 63.0668 103.431C63.0668 101.246 63.9703 99.2238 65.4945 97.7858C63.9703 96.3481 63.0668 94.326 63.0668 92.1408C63.0668 89.9552 63.9703 87.9334 65.4945 86.4954C63.9703 85.0577 63.0668 83.0356 63.0668 80.8504C63.0668 78.6655 63.9005 76.5661 65.4942 75.2057Z" fill="white"/>
</g>
</g>
<g filter="url(#filter1_i)">
<path d="M175.044 67.1695H184.826C186.579 67.1695 188 68.5908 188 70.3437V104.605C188 106.358 186.579 107.78 184.826 107.78H175.044C173.291 107.78 171.87 106.358 171.87 104.605V70.3437C171.87 68.5908 173.291 67.1695 175.044 67.1695Z" fill="white"/>
<path d="M131.407 73.5442C131.405 73.5442 131.403 73.5438 131.401 73.5434C131.403 73.523 131.404 73.5317 131.407 73.5442Z" fill="white"/>
<path d="M131.407 73.543C131.412 73.5433 131.416 73.544 131.42 73.5443C131.415 73.5707 131.411 73.5563 131.407 73.543Z" fill="white"/>
<path d="M110.111 80.1424C110.598 77.6539 113.189 75.6424 115.725 75.6424H117.285C115.428 74.493 114.284 72.3026 114.688 69.8811C115.118 67.3015 117.727 65.212 120.342 65.212H124.502C124.317 67.4034 125.048 69.3896 126.39 70.893C127.418 72.0458 128.744 72.9308 130.213 73.3313C130.195 73.4578 130.201 73.4181 130.184 73.5447H126.795C126.26 73.5447 125.737 73.7687 125.408 74.1903C124.519 75.3284 125.383 76.8762 126.711 76.8762H135.706C136.009 76.8762 136.308 76.9583 136.563 77.1218C137.821 77.9285 138.602 79.3183 138.602 80.8507C138.602 82.3691 137.836 83.7476 136.598 84.557L136.578 84.57C136.314 84.7396 136.006 84.8299 135.692 84.8299H124.66C123.363 84.8299 122.491 86.3117 123.317 87.4748C123.635 87.9217 124.172 88.1615 124.72 88.1615H135.688C136.007 88.1615 136.32 88.2538 136.588 88.4275L136.598 88.4344C137.836 89.2442 138.602 90.6223 138.602 92.1411C138.602 93.6738 137.822 95.0636 136.563 95.8697C136.309 96.0331 136.009 96.1152 135.706 96.1152H128.079C126.996 96.1152 126.059 97.2249 126.546 98.4468C126.792 99.0661 127.423 99.4467 128.09 99.4467H135.673C135.985 99.4467 136.294 99.5302 136.557 99.6981C137.819 100.504 138.602 101.896 138.602 103.431C138.602 105.539 137.091 107.367 135.044 107.78H124.757C122.141 107.78 119.533 105.691 119.102 103.111C118.699 100.689 119.843 98.4988 121.7 97.3497H119.964C117.348 97.3497 114.74 95.2599 114.31 92.68C113.906 90.2585 115.05 88.0681 116.907 86.9191H115.639C112.152 86.9187 109.405 83.7551 110.111 80.1424Z" fill="white"/>
<path d="M139.506 75.2057C137.517 73.5078 135.027 73.2643 135.027 73.2643L142.836 66.3601C143.428 65.8321 143.508 64.8933 142.955 64.2733C142.411 63.6643 141.478 63.6106 140.868 64.1547L135.11 69.2936C134.191 70.1147 133.002 70.5329 131.776 70.4583C130.546 70.3889 129.416 69.8438 128.596 68.9246C126.894 67.0184 127.065 64.1051 128.965 62.4099L139.063 53.395C140.908 51.7491 143.705 51.8431 145.434 53.6101L145.477 53.6529C156.706 64.2142 158.148 65.525 160.823 68.2587C163.988 71.762 166.194 74.8442 166.194 79.3268V92.8476C166.194 101.081 159.495 107.78 151.261 107.78C147.977 107.78 144.429 107.78 140.599 107.78C141.457 106.514 141.933 105.003 141.933 103.431C141.933 101.246 141.03 99.2238 139.506 97.7858C141.03 96.3481 141.933 94.326 141.933 92.1408C141.933 89.9552 141.03 87.9334 139.506 86.4954C141.03 85.0577 141.933 83.0356 141.933 80.8504C141.933 78.6655 141.099 76.5661 139.506 75.2057Z" fill="white"/>
</g>
<defs>
<filter id="filter0_d" x="13" y="52.2201" width="85.9999" height="63.5603" filterUnits="userSpaceOnUse" color-interpolation-filters="sRGB">
<feFlood flood-opacity="0" result="BackgroundImageFix"/>
<feColorMatrix in="SourceAlpha" type="matrix" values="0 0 0 0 0 0 0 0 0 0 0 0 0 0 0 0 0 0 127 0"/>
<feOffset dy="4"/>
<feGaussianBlur stdDeviation="2"/>
<feColorMatrix type="matrix" values="0 0 0 0 0 0 0 0 0 0 0 0 0 0 0 0 0 0 0.25 0"/>
<feBlend mode="normal" in2="BackgroundImageFix" result="effect1_dropShadow"/>
<feBlend mode="normal" in="SourceGraphic" in2="effect1_dropShadow" result="shape"/>
</filter>
<filter id="filter1_i" x="110" y="52.2201" width="77.9999" height="59.5603" filterUnits="userSpaceOnUse" color-interpolation-filters="sRGB">
<feFlood flood-opacity="0" result="BackgroundImageFix"/>
<feBlend mode="normal" in="SourceGraphic" in2="BackgroundImageFix" result="shape"/>
<feColorMatrix in="SourceAlpha" type="matrix" values="0 0 0 0 0 0 0 0 0 0 0 0 0 0 0 0 0 0 127 0" result="hardAlpha"/>
<feOffset dy="4"/>
<feGaussianBlur stdDeviation="2"/>
<feComposite in2="hardAlpha" operator="arithmetic" k2="-1" k3="1"/>
<feColorMatrix type="matrix" values="0 0 0 0 0 0 0 0 0 0 0 0 0 0 0 0 0 0 0.15 0"/>
<feBlend mode="normal" in2="shape" result="effect1_innerShadow"/>
</filter>
<linearGradient id="paint0_linear" x1="80" y1="0" x2="80" y2="199" gradientUnits="userSpaceOnUse">
<stop stop-color="#003479"/>
<stop offset="1" stop-color="#3300FF" stop-opacity="0.65"/>
</linearGradient>
<clipPath id="clip0">
<rect x="17" y="41" width="78" height="78" fill="white"/>
</clipPath>
</defs>
</svg>
