<svg width="223" height="53" viewBox="0 0 223 53" fill="none" xmlns="http://www.w3.org/2000/svg">
<g clip-path="url(#clip0)">
<path d="M43.9764 31.5363C43.8668 29.0153 43.4284 26.2203 42.7707 23.5897C42.1131 21.0688 41.291 18.7122 40.3046 16.9037C36.4683 10.1628 32.3032 11.2041 27.316 12.5193C25.7267 12.903 24.0278 13.3414 22.2741 13.5058H21.726C19.9723 13.3414 18.2734 12.903 16.6841 12.5193C11.6969 11.2589 7.53184 10.1628 3.69557 16.9585C2.7091 18.767 1.83224 21.1236 1.2294 23.6445C0.571749 26.2751 0.133318 29.0701 0.0237107 31.5911C-0.0858971 34.3861 0.188122 36.4139 0.790965 37.8388C1.39381 39.1541 2.27067 39.9761 3.42155 40.3049C4.46282 40.579 5.66851 40.4693 6.929 39.9213C9.06635 39.0444 11.5325 37.1811 13.9439 34.9341C15.6428 33.29 18.8214 32.468 22.0001 32.468C25.1787 32.468 28.3573 33.29 30.0562 34.9341C32.4676 37.1811 34.9338 39.0444 37.0711 39.9213C38.3316 40.4145 39.5373 40.579 40.5786 40.3049C41.6747 39.9761 42.6063 39.2089 43.2092 37.784C43.812 36.4139 44.086 34.3861 43.9764 31.5363ZM41.3458 37.0167C41.017 37.784 40.5786 38.2224 40.0305 38.3868C39.4277 38.5512 38.6604 38.4416 37.7836 38.1128C35.8654 37.3455 33.6185 35.6466 31.4263 33.5641C29.3438 31.4815 25.6719 30.4402 22.0001 30.4402C18.3282 30.4402 14.6563 31.4815 12.519 33.4544C10.272 35.537 8.02508 37.2907 6.16175 38.0032C5.28488 38.332 4.51763 38.4964 3.91479 38.2772C3.36675 38.1128 2.92832 37.6743 2.59949 36.9071C2.16106 35.8658 1.94185 34.1669 2.05145 31.6459C2.16106 29.2893 2.54469 26.604 3.20234 24.083C3.80518 21.7264 4.57243 19.5342 5.5041 17.8901C8.51831 12.4645 12.0258 13.3414 16.1909 14.4375C17.8898 14.8759 19.6435 15.3143 21.5616 15.4788C21.6164 15.4788 21.6164 15.4788 21.6712 15.4788H22.2741C22.3289 15.4788 22.3289 15.4788 22.3837 15.4788C24.3566 15.3143 26.1104 14.8759 27.8093 14.4375C31.9744 13.3962 35.4818 12.4645 38.496 17.8901C39.4277 19.5342 40.195 21.6716 40.7978 24.083C41.4006 26.604 41.8391 29.2345 41.9487 31.6459C42.0583 34.1669 41.8391 35.8658 41.3458 37.0167Z" fill="#0049D8"/>
<path d="M16.9582 20.8496C16.4101 20.3563 15.7525 19.9727 14.9852 19.9179C14.9304 19.2055 14.6016 18.493 14.1084 17.9998L14.0535 17.945C13.4507 17.3421 12.6834 17.0133 11.8066 17.0133C10.9297 17.0133 10.1077 17.3969 9.55963 17.945C9.06639 18.4382 8.68276 19.1507 8.62796 19.9179C7.8607 19.9727 7.20306 20.3015 6.65502 20.7948L6.60022 20.8496C5.99737 21.4524 5.66855 22.2197 5.66855 23.0965C5.66855 23.9734 6.05218 24.7955 6.60022 25.3435C7.14825 25.8915 7.8059 26.2204 8.62796 26.2752C8.68276 27.0424 9.01159 27.7549 9.55963 28.2481C10.1625 28.851 10.9297 29.1798 11.8066 29.1798C12.6834 29.1798 13.5055 28.7961 14.0535 28.2481C14.5468 27.7001 14.9304 27.0424 14.9852 26.2752C15.7525 26.2204 16.4649 25.8915 16.9582 25.3435C17.561 24.7407 17.8898 23.9734 17.8898 23.0965C17.8898 22.2197 17.5062 21.3976 16.9582 20.8496ZM15.5881 23.9186C15.3688 24.1378 15.0948 24.2474 14.766 24.2474H13.9987C13.4507 24.2474 12.9575 24.6859 12.9575 25.2887V26.0011C12.9575 26.33 12.8479 26.604 12.6286 26.8232C12.4094 27.0424 12.1354 27.152 11.8066 27.152C11.4778 27.152 11.2037 27.0424 10.9845 26.8232C10.7653 26.604 10.6557 26.33 10.6557 26.0011V25.2339C10.6557 24.6859 10.2173 24.1926 9.61443 24.1926H8.84718C8.51835 24.1926 8.24433 24.083 8.02512 23.8638C7.86071 23.6994 7.69629 23.4254 7.69629 23.0965C7.69629 22.7677 7.8059 22.4937 8.02512 22.2745C8.02512 22.2745 8.02512 22.2745 8.07992 22.2197C8.29914 22.0553 8.57316 21.9457 8.84718 21.9457H9.61443C10.1625 21.9457 10.6557 21.5072 10.6557 20.9044V20.1371C10.6557 19.8083 10.7653 19.5343 10.9845 19.3151C11.2037 19.0959 11.4778 18.9862 11.8066 18.9862C12.1354 18.9862 12.4094 19.0959 12.6286 19.3151C12.6286 19.3151 12.6286 19.3151 12.6834 19.3699C12.8479 19.5891 12.9575 19.8631 12.9575 20.1371V20.9044C12.9575 21.4524 13.3959 21.9457 13.9987 21.9457H14.766C15.0948 21.9457 15.3688 22.0553 15.5881 22.2745C15.8073 22.4937 15.9169 22.7677 15.9169 23.0965C15.9169 23.4254 15.8073 23.6994 15.5881 23.9186Z" fill="#0049D8"/>
<path d="M31.536 21.1236C32.5953 21.1236 33.4541 20.2648 33.4541 19.2055C33.4541 18.1461 32.5953 17.2874 31.536 17.2874C30.4766 17.2874 29.6178 18.1461 29.6178 19.2055C29.6178 20.2648 30.4766 21.1236 31.536 21.1236Z" fill="#0049D8"/>
<path d="M31.536 28.9058C32.5953 28.9058 33.4541 28.047 33.4541 26.9877C33.4541 25.9283 32.5953 25.0695 31.536 25.0695C30.4766 25.0695 29.6178 25.9283 29.6178 26.9877C29.6178 28.047 30.4766 28.9058 31.536 28.9058Z" fill="#0049D8"/>
<path d="M27.6449 25.0147C28.7042 25.0147 29.563 24.156 29.563 23.0966C29.563 22.0372 28.7042 21.1785 27.6449 21.1785C26.5855 21.1785 25.7267 22.0372 25.7267 23.0966C25.7267 24.156 26.5855 25.0147 27.6449 25.0147Z" fill="#0049D8"/>
<path d="M35.427 25.0147C36.4864 25.0147 37.3452 24.156 37.3452 23.0966C37.3452 22.0372 36.4864 21.1785 35.427 21.1785C34.3677 21.1785 33.5089 22.0372 33.5089 23.0966C33.5089 24.156 34.3677 25.0147 35.427 25.0147Z" fill="#0049D8"/>
</g>
<path d="M60.192 7.6H62.952V22H65.592V7.6H68.352V5.2H60.192V7.6ZM72.1547 14.8H75.1547V22H77.8427V5.2H75.1547V12.4H72.1547V5.2H69.5147V22H72.1547V14.8ZM82.3969 7.6H86.9569V5.2H79.7569V22H86.9569V19.6H82.3969V14.68H86.0209V12.28H82.3969V7.6ZM95.9674 5.2H92.2954V22H94.5994V10.12H94.6474L96.5674 22H99.0634L100.839 9.952H100.887V22H103.383V5.2H99.7114L97.9354 17.128H97.8874L95.9674 5.2ZM107.728 9.064C107.728 7.864 108.256 7.408 109.096 7.408C109.936 7.408 110.464 7.864 110.464 9.064V18.136C110.464 19.336 109.936 19.792 109.096 19.792C108.256 19.792 107.728 19.336 107.728 18.136V9.064ZM105.088 17.968C105.088 20.656 106.504 22.192 109.096 22.192C111.688 22.192 113.104 20.656 113.104 17.968V9.232C113.104 6.544 111.688 5.008 109.096 5.008C106.504 5.008 105.088 6.544 105.088 9.232V17.968ZM123.027 22C122.763 21.376 122.739 20.776 122.739 19.96V17.368C122.739 15.616 122.307 14.368 120.987 13.816V13.768C122.163 13.216 122.715 12.112 122.715 10.384V9.064C122.715 6.472 121.539 5.2 118.803 5.2H114.819V22H117.459V15.16H118.371C119.571 15.16 120.099 15.736 120.099 17.296V19.936C120.099 21.304 120.195 21.568 120.339 22H123.027ZM118.731 7.6C119.667 7.6 120.075 8.128 120.075 9.328V10.984C120.075 12.328 119.475 12.76 118.491 12.76H117.459V7.6H118.731ZM127.116 7.6H131.676V5.2H124.476V22H131.676V19.6H127.116V14.68H130.74V12.28H127.116V7.6ZM139.51 22H142.15V16.432L145.486 5.2H142.966L140.974 12.856H140.926L138.934 5.2H136.174L139.51 16.432V22ZM148.626 9.064C148.626 7.864 149.154 7.408 149.994 7.408C150.834 7.408 151.362 7.864 151.362 9.064V18.136C151.362 19.336 150.834 19.792 149.994 19.792C149.154 19.792 148.626 19.336 148.626 18.136V9.064ZM145.986 17.968C145.986 20.656 147.402 22.192 149.994 22.192C152.586 22.192 154.002 20.656 154.002 17.968V9.232C154.002 6.544 152.586 5.008 149.994 5.008C147.402 5.008 145.986 6.544 145.986 9.232V17.968ZM155.598 5.2V17.992C155.598 20.68 156.942 22.216 159.534 22.216C162.126 22.216 163.47 20.68 163.47 17.992V5.2H160.974V18.16C160.974 19.36 160.446 19.792 159.606 19.792C158.766 19.792 158.238 19.36 158.238 18.16V5.2H155.598ZM172.895 5.2H169.007V22H171.647V15.688H172.895C175.535 15.688 176.831 14.224 176.831 11.536V9.352C176.831 6.664 175.535 5.2 172.895 5.2ZM172.895 7.6C173.735 7.6 174.191 7.984 174.191 9.184V11.704C174.191 12.904 173.735 13.288 172.895 13.288H171.647V7.6H172.895ZM178.054 22H185.038V19.6H180.694V5.2H178.054V22ZM192.043 5.2H188.179L185.491 22H187.915L188.371 18.952H191.611L192.067 22H194.731L192.043 5.2ZM189.955 8.176H190.003L191.251 16.672H188.707L189.955 8.176ZM197.26 22H199.9V16.432L203.236 5.2H200.716L198.724 12.856H198.676L196.684 5.2H193.924L197.26 16.432V22ZM203.39 22L202.694 24.4H203.774L204.926 21.736V19.456H202.382V22H203.39ZM60.192 35.6H62.952V50H65.592V35.6H68.352V33.2H60.192V35.6ZM72.1547 42.8H75.1547V50H77.8427V33.2H75.1547V40.4H72.1547V33.2H69.5147V50H72.1547V42.8ZM82.3969 35.6H86.9569V33.2H79.7569V50H86.9569V47.6H82.3969V42.68H86.0209V40.28H82.3969V35.6ZM95.9674 33.2H92.2954V50H94.5994V38.12H94.6474L96.5674 50H99.0634L100.839 37.952H100.887V50H103.383V33.2H99.7114L97.9354 45.128H97.8874L95.9674 33.2ZM107.728 37.064C107.728 35.864 108.256 35.408 109.096 35.408C109.936 35.408 110.464 35.864 110.464 37.064V46.136C110.464 47.336 109.936 47.792 109.096 47.792C108.256 47.792 107.728 47.336 107.728 46.136V37.064ZM105.088 45.968C105.088 48.656 106.504 50.192 109.096 50.192C111.688 50.192 113.104 48.656 113.104 45.968V37.232C113.104 34.544 111.688 33.008 109.096 33.008C106.504 33.008 105.088 34.544 105.088 37.232V45.968ZM123.027 50C122.763 49.376 122.739 48.776 122.739 47.96V45.368C122.739 43.616 122.307 42.368 120.987 41.816V41.768C122.163 41.216 122.715 40.112 122.715 38.384V37.064C122.715 34.472 121.539 33.2 118.803 33.2H114.819V50H117.459V43.16H118.371C119.571 43.16 120.099 43.736 120.099 45.296V47.936C120.099 49.304 120.195 49.568 120.339 50H123.027ZM118.731 35.6C119.667 35.6 120.075 36.128 120.075 37.328V38.984C120.075 40.328 119.475 40.76 118.491 40.76H117.459V35.6H118.731ZM127.116 35.6H131.676V33.2H124.476V50H131.676V47.6H127.116V42.68H130.74V40.28H127.116V35.6ZM139.51 50H142.15V44.432L145.486 33.2H142.966L140.974 40.856H140.926L138.934 33.2H136.174L139.51 44.432V50ZM148.626 37.064C148.626 35.864 149.154 35.408 149.994 35.408C150.834 35.408 151.362 35.864 151.362 37.064V46.136C151.362 47.336 150.834 47.792 149.994 47.792C149.154 47.792 148.626 47.336 148.626 46.136V37.064ZM145.986 45.968C145.986 48.656 147.402 50.192 149.994 50.192C152.586 50.192 154.002 48.656 154.002 45.968V37.232C154.002 34.544 152.586 33.008 149.994 33.008C147.402 33.008 145.986 34.544 145.986 37.232V45.968ZM155.598 33.2V45.992C155.598 48.68 156.942 50.216 159.534 50.216C162.126 50.216 163.47 48.68 163.47 45.992V33.2H160.974V46.16C160.974 47.36 160.446 47.792 159.606 47.792C158.766 47.792 158.238 47.36 158.238 46.16V33.2H155.598ZM175.823 50H179.327L181.199 33.2H178.895L177.551 46.544H177.503L176.207 33.2H173.663L172.415 46.448H172.367L170.975 33.2H168.407L170.279 50H173.903L174.839 41.048H174.887L175.823 50ZM182.53 50H185.17V33.2H182.53V50ZM192.741 50H195.453V33.2H193.101V43.256H193.053L190.389 33.2H187.077V50H189.453V37.832H189.501L192.741 50Z" fill="url(#paint0_linear)"/>
<defs>
<linearGradient id="paint0_linear" x1="141.5" y1="1.38699e-07" x2="141.948" y2="54.8933" gradientUnits="userSpaceOnUse">
<stop stop-color="#2F80ED"/>
<stop offset="1" stop-color="#0049D8"/>
</linearGradient>
<clipPath id="clip0">
<rect width="44" height="44" fill="white" transform="translate(0 4)"/>
</clipPath>
</defs>
</svg>
