<svg width="200" height="162" viewBox="0 0 200 162" fill="none" xmlns="http://www.w3.org/2000/svg">
<rect width="160" height="199" transform="matrix(0 1 1 0 0.5 1)" fill="url(#paint0_linear)"/>
<g filter="url(#filter0_d)">
<path fill-rule="evenodd" clip-rule="evenodd" d="M91.0373 39.9685C89.7468 38.6767 87.6544 38.6767 86.3638 39.9685L71.0077 55.3396L55.6431 39.9686C54.3522 38.6771 52.2592 38.6771 50.9683 39.9686C49.6774 41.26 49.6774 43.3539 50.9683 44.6453L66.3342 60.0176L50.9788 75.3881C49.6882 76.6799 49.6882 78.7743 50.9788 80.0661C52.2693 81.3579 54.3617 81.3579 55.6523 80.0661L71.009 64.6944L86.3633 80.055C87.6542 81.3464 89.7472 81.3464 91.0381 80.055C92.329 78.7635 92.329 76.6697 91.0381 75.3782L75.6825 60.0163L91.0373 44.6465C92.3279 43.3547 92.3279 41.2603 91.0373 39.9685Z" fill="white"/>
</g>
<g filter="url(#filter1_i)">
<path d="M143.5 101.988C143.5 111.661 135.662 119.5 125.997 119.5C116.331 119.5 108.494 111.661 108.494 101.988C108.494 92.3154 116.331 84.4764 125.997 84.4764C135.662 84.4764 143.5 92.3154 143.5 101.988Z" stroke="white" stroke-width="7"/>
</g>
<defs>
<filter id="filter0_d" x="46.0001" y="38.9996" width="50.0062" height="50.0353" filterUnits="userSpaceOnUse" color-interpolation-filters="sRGB">
<feFlood flood-opacity="0" result="BackgroundImageFix"/>
<feColorMatrix in="SourceAlpha" type="matrix" values="0 0 0 0 0 0 0 0 0 0 0 0 0 0 0 0 0 0 127 0"/>
<feOffset dy="4"/>
<feGaussianBlur stdDeviation="2"/>
<feColorMatrix type="matrix" values="0 0 0 0 0 0 0 0 0 0 0 0 0 0 0 0 0 0 0.25 0"/>
<feBlend mode="normal" in2="BackgroundImageFix" result="effect1_dropShadow"/>
<feBlend mode="normal" in="SourceGraphic" in2="effect1_dropShadow" result="shape"/>
</filter>
<filter id="filter1_i" x="104.994" y="80.9764" width="42.0063" height="46.0236" filterUnits="userSpaceOnUse" color-interpolation-filters="sRGB">
<feFlood flood-opacity="0" result="BackgroundImageFix"/>
<feBlend mode="normal" in="SourceGraphic" in2="BackgroundImageFix" result="shape"/>
<feColorMatrix in="SourceAlpha" type="matrix" values="0 0 0 0 0 0 0 0 0 0 0 0 0 0 0 0 0 0 127 0" result="hardAlpha"/>
<feOffset dy="4"/>
<feGaussianBlur stdDeviation="2"/>
<feComposite in2="hardAlpha" operator="arithmetic" k2="-1" k3="1"/>
<feColorMatrix type="matrix" values="0 0 0 0 0 0 0 0 0 0 0 0 0 0 0 0 0 0 0.25 0"/>
<feBlend mode="normal" in2="shape" result="effect1_innerShadow"/>
</filter>
<linearGradient id="paint0_linear" x1="80" y1="0" x2="80" y2="199" gradientUnits="userSpaceOnUse">
<stop stop-color="#003479"/>
<stop offset="1" stop-color="#3300FF" stop-opacity="0.65"/>
</linearGradient>
</defs>
</svg>
