<svg width="200" height="160" viewBox="0 0 200 160" fill="none" xmlns="http://www.w3.org/2000/svg">
<rect width="160" height="199" transform="matrix(0 1 1 0 0.5 0)" fill="url(#paint0_linear)"/>
<path d="M129.107 37.0509L124.572 41.5854C121.567 44.5906 114.495 42.3914 108.777 36.6732C103.059 30.9549 100.86 23.8836 103.865 20.8782L108.4 16.3437" fill="#EAEAEA"/>
<path d="M129.105 37.051C132.111 34.046 129.912 26.9749 124.194 21.2573C118.476 15.5397 111.405 13.3407 108.4 16.3458C105.395 19.3508 107.594 26.422 113.312 32.1395C119.029 37.8571 126.1 40.0561 129.105 37.051Z" fill="white"/>
<path d="M128.982 77.3898C128.445 77.463 127.881 77.2954 127.464 76.8853C126.75 76.1828 126.741 75.0343 127.444 74.3206C135.244 66.3982 135.144 53.6072 127.222 45.8076C126.508 45.105 126.499 43.9567 127.202 43.243C127.904 42.5295 129.052 42.5201 129.766 43.223C139.114 52.4256 139.232 67.5174 130.029 76.8651C129.736 77.1625 129.366 77.3376 128.982 77.3898Z" fill="#E0E0E0"/>
<path d="M139.915 91.1654C139.377 91.2386 138.813 91.071 138.397 90.6608C137.683 89.9582 137.674 88.8099 138.376 88.0962C148.545 77.768 148.414 61.0932 138.086 50.925C137.372 50.2224 137.363 49.0741 138.066 48.3604C138.769 47.6469 139.917 47.6375 140.631 48.3404C152.384 59.9117 152.533 78.8874 140.962 90.6406C140.668 90.938 140.298 91.1131 139.915 91.1654Z" fill="#E0E0E0"/>
<g filter="url(#filter0_d)">
<path d="M132.891 110.07C132.891 106.848 130.254 104.211 127.031 104.211C130.254 104.211 132.891 101.574 132.891 98.3516C132.891 95.1289 130.254 92.4922 127.031 92.4922H103.008C106.582 81.7693 106.523 78.3516 106.523 71.7891C106.523 66.9139 102.526 63 97.7344 63H95.9766C94.8633 63 93.457 63.8791 93.1639 65.2266C90.2652 76.5119 85.7334 89.4617 74.2969 92.0848V134.48L84.4334 137.844C87.4217 138.839 90.5273 139.367 93.6914 139.367H121.172C124.408 139.367 127.031 136.744 127.031 133.508C127.031 130.272 124.408 127.648 121.172 127.648H127.031C130.254 127.648 132.891 125.012 132.891 121.789C132.891 118.566 130.254 115.93 127.031 115.93C130.254 115.93 132.891 113.293 132.891 110.07Z" fill="white"/>
</g>
<g filter="url(#filter1_d)">
<path d="M59.6484 86.6328H47.9297C46.3104 86.6328 45 87.9432 45 89.5625V142.297C45 143.916 46.3104 145.227 47.9297 145.227H59.6484C64.4949 145.227 68.4375 141.284 68.4375 136.438V95.4219C68.4375 90.5754 64.4949 86.6328 59.6484 86.6328ZM59.6484 133.508C58.0305 133.508 56.7188 132.196 56.7188 130.578C56.7188 128.96 58.0305 127.648 59.6484 127.648C61.2664 127.648 62.5781 128.96 62.5781 130.578C62.5781 132.196 61.2664 133.508 59.6484 133.508Z" fill="white"/>
</g>
<defs>
<filter id="filter0_d" x="70.2969" y="63" width="66.5938" height="84.367" filterUnits="userSpaceOnUse" color-interpolation-filters="sRGB">
<feFlood flood-opacity="0" result="BackgroundImageFix"/>
<feColorMatrix in="SourceAlpha" type="matrix" values="0 0 0 0 0 0 0 0 0 0 0 0 0 0 0 0 0 0 127 0"/>
<feOffset dy="4"/>
<feGaussianBlur stdDeviation="2"/>
<feColorMatrix type="matrix" values="0 0 0 0 0 0 0 0 0 0 0 0 0 0 0 0 0 0 0.25 0"/>
<feBlend mode="normal" in2="BackgroundImageFix" result="effect1_dropShadow"/>
<feBlend mode="normal" in="SourceGraphic" in2="effect1_dropShadow" result="shape"/>
</filter>
<filter id="filter1_d" x="41" y="86.6328" width="31.4375" height="66.5938" filterUnits="userSpaceOnUse" color-interpolation-filters="sRGB">
<feFlood flood-opacity="0" result="BackgroundImageFix"/>
<feColorMatrix in="SourceAlpha" type="matrix" values="0 0 0 0 0 0 0 0 0 0 0 0 0 0 0 0 0 0 127 0"/>
<feOffset dy="4"/>
<feGaussianBlur stdDeviation="2"/>
<feColorMatrix type="matrix" values="0 0 0 0 0 0 0 0 0 0 0 0 0 0 0 0 0 0 0.25 0"/>
<feBlend mode="normal" in2="BackgroundImageFix" result="effect1_dropShadow"/>
<feBlend mode="normal" in="SourceGraphic" in2="effect1_dropShadow" result="shape"/>
</filter>
<linearGradient id="paint0_linear" x1="80" y1="0" x2="80" y2="199" gradientUnits="userSpaceOnUse">
<stop stop-color="#003479"/>
<stop offset="1" stop-color="#3300FF" stop-opacity="0.65"/>
</linearGradient>
</defs>
</svg>
