<svg width="35" height="35" viewBox="0 0 35 35" fill="none" xmlns="http://www.w3.org/2000/svg">
<path d="M1.09375 17.5C1.09375 26.561 8.43896 33.9062 17.5 33.9062C26.561 33.9062 33.9062 26.561 33.9062 17.5C33.9062 8.43896 26.561 1.09375 17.5 1.09375C8.43896 1.09375 1.09375 8.43896 1.09375 17.5ZM23.5156 20.7443H11.4844L17.5 10.7693L23.5156 20.7443Z" fill="#80A4EC"/>
<path d="M5.51231 5.51269C3.92432 7.08387 2.66251 8.95341 1.7994 11.0138C0.936295 13.0743 0.488913 15.285 0.48297 17.5189C0.477028 19.7528 0.912642 21.9658 1.76478 24.0308C2.61691 26.0958 3.86876 27.972 5.44837 29.5516C7.02798 31.1312 8.9042 32.3831 10.9692 33.2352C13.0342 34.0874 15.2472 34.523 17.4811 34.517C19.715 34.5111 21.9257 34.0637 23.9862 33.2006C26.0466 32.3375 27.9161 31.0757 29.4873 29.4877C31.0753 27.9165 32.3371 26.047 33.2002 23.9865C34.0633 21.9261 34.5107 19.7154 34.5167 17.4815C34.5226 15.2476 34.087 13.0346 33.2349 10.9696C32.3827 8.90457 31.1309 7.02835 29.5513 5.44874C27.9717 3.86913 26.0954 2.61728 24.0304 1.76515C21.9654 0.913017 19.7524 0.477402 17.5185 0.483345C15.2846 0.489288 13.0739 0.936668 11.0135 1.79977C8.95303 2.66288 7.0835 3.9247 5.51231 5.51269ZM28.7142 6.28583C31.6884 9.26006 33.3593 13.294 33.3593 17.5002C33.3593 21.7064 31.6884 25.7403 28.7142 28.7145C25.7399 31.6888 21.706 33.3597 17.4998 33.3597C13.2936 33.3597 9.25969 31.6888 6.28546 28.7145C3.31122 25.7403 1.64032 21.7064 1.64032 17.5002C1.64032 13.294 3.31122 9.26006 6.28546 6.28583C9.25969 3.3116 13.2936 1.64069 17.4998 1.64069C21.706 1.64069 25.7399 3.3116 28.7142 6.28583Z" fill="#0049D8"/>
<path d="M31.7666 22.9687C31.7666 23.0381 31.7533 23.1069 31.7276 23.1713C30.5922 26.0169 28.6296 28.4566 26.0933 30.1753C23.5571 31.894 20.5637 32.8126 17.5 32.8125C17.355 32.8125 17.2159 32.7549 17.1133 32.6523C17.0107 32.5498 16.9531 32.4107 16.9531 32.2656C16.9531 32.1206 17.0107 31.9815 17.1133 31.8789C17.2159 31.7764 17.355 31.7187 17.5 31.7187C20.345 31.7189 23.1247 30.8659 25.4799 29.27C27.8351 27.6741 29.6576 25.4085 30.7119 22.7661C30.759 22.648 30.8458 22.5501 30.9573 22.4891C31.0688 22.4282 31.1981 22.4079 31.3229 22.4319C31.4477 22.4559 31.5603 22.5226 31.6413 22.6206C31.7222 22.7185 31.7666 22.8417 31.7666 22.9687Z" fill="#0049D8"/>
<path d="M32.5598 20.2338C32.5598 20.2678 32.5566 20.3017 32.5503 20.3351C32.4792 20.715 32.3925 21.0967 32.2926 21.4695C32.2748 21.5397 32.2431 21.6055 32.1996 21.6634C32.1561 21.7212 32.1015 21.7698 32.0391 21.8064C31.9767 21.8429 31.9076 21.8667 31.8359 21.8764C31.7641 21.8861 31.6912 21.8815 31.6213 21.8628C31.5514 21.844 31.4859 21.8117 31.4286 21.7674C31.3713 21.7232 31.3234 21.6681 31.2875 21.6052C31.2517 21.5424 31.2287 21.473 31.2199 21.4012C31.2111 21.3293 31.2166 21.2565 31.2361 21.1868C31.3288 20.8407 31.4093 20.4865 31.4754 20.1337C31.5003 19.9997 31.5745 19.8798 31.6832 19.7976C31.792 19.7153 31.9275 19.6767 32.0633 19.6892C32.1991 19.7017 32.3253 19.7645 32.4171 19.8653C32.509 19.966 32.5599 20.0975 32.5599 20.2338H32.5598Z" fill="#0049D8"/>
<path d="M24.062 20.7446C24.062 20.8897 24.0044 21.0288 23.9018 21.1313C23.7993 21.2339 23.6602 21.2915 23.5151 21.2915H11.4839C11.387 21.2915 11.2919 21.2658 11.2082 21.2169C11.1245 21.1681 11.0553 21.0979 11.0077 21.0136C10.9601 20.9292 10.9357 20.8337 10.9371 20.7368C10.9384 20.64 10.9655 20.5452 11.0156 20.4622L17.0312 10.487C17.0799 10.4063 17.1485 10.3396 17.2306 10.2932C17.3126 10.2469 17.4052 10.2226 17.4994 10.2226C17.5937 10.2226 17.6863 10.2469 17.7683 10.2932C17.8504 10.3396 17.919 10.4063 17.9677 10.487L23.9833 20.4622C24.0348 20.5475 24.062 20.6451 24.062 20.7446ZM12.4523 20.1978H22.5467L17.4995 11.8283L12.4523 20.1978Z" fill="#0049D8"/>
</svg>
