<svg width="22" height="22" viewBox="0 0 22 22" fill="none" xmlns="http://www.w3.org/2000/svg">
<path d="M9.751 17.1853C8.89334 17.9778 7.7071 18.1553 6.65497 17.6487C6.27461 17.4656 5.95364 17.2126 5.70235 16.9097L4.26973 20.0784C4.20455 20.2226 4.27734 20.3312 4.31163 20.3712C4.34592 20.4112 4.44221 20.4997 4.59458 20.4573L5.63751 20.167C5.75637 20.134 5.87651 20.118 5.99497 20.118C6.49474 20.118 6.96512 20.4009 7.19161 20.8696L7.66263 21.8444C7.73143 21.9868 7.86046 22.001 7.91417 22C7.96685 21.9993 8.09644 21.9822 8.16159 21.838L10.4403 16.7976C10.19 16.8697 9.95287 16.9987 9.751 17.1853Z" fill="#F2994A"/>
<path d="M17.7302 20.0784L16.2976 16.9097C16.0463 17.2127 15.7253 17.4656 15.345 17.6487C14.2928 18.1553 13.1066 17.9778 12.2489 17.1853C12.0471 16.9987 11.81 16.8697 11.5595 16.7976L13.8383 21.838C13.9035 21.9822 14.033 21.9993 14.0857 22C14.1394 22.001 14.2684 21.9868 14.3372 21.8444L14.8082 20.8696C15.0347 20.4009 15.5051 20.118 16.0049 20.118C16.1233 20.118 16.2435 20.134 16.3623 20.167L17.4053 20.4573C17.5576 20.4997 17.654 20.4112 17.6882 20.3712C17.7226 20.3312 17.7954 20.2225 17.7302 20.0784Z" fill="#F2994A"/>
<path d="M18.8556 8.92852C17.6658 8.11383 17.2966 6.49627 18.0151 5.24601C18.447 4.49445 18.2222 3.75177 17.8678 3.30735C17.5134 2.86305 16.8393 2.4787 16.0106 2.73243C14.632 3.15468 13.137 2.43487 12.6074 1.09355C12.2891 0.287289 11.5683 0 11 0C10.4316 0 9.71084 0.287289 9.39253 1.0936C8.86298 2.43495 7.3681 3.15468 5.98936 2.73247C5.16054 2.47878 4.48657 2.86305 4.13212 3.30739C3.77776 3.75182 3.55299 4.4944 3.98487 5.24605C4.70339 6.49627 4.33421 8.11388 3.1444 8.92856C2.42914 9.41836 2.30948 10.185 2.43589 10.7391C2.5623 11.2932 3.00282 11.9319 3.85975 12.0629C5.28519 12.2806 6.31962 13.5778 6.21482 15.016C6.15174 15.8806 6.67652 16.4521 7.18857 16.6988C7.70068 16.9454 8.47471 16.9993 9.11134 16.411C9.6408 15.9217 10.3205 15.6769 10.9999 15.6769C11.6796 15.6769 12.359 15.9216 12.8885 16.411C13.5252 16.9994 14.2993 16.9454 14.8114 16.6988C15.3234 16.4522 15.8481 15.8806 15.7851 15.016C15.6803 13.5778 16.7147 12.2807 18.1402 12.0629C18.9971 11.9319 19.4375 11.2932 19.564 10.7391C19.6905 10.1849 19.5707 9.41828 18.8556 8.92852ZM11 14.4342C7.88153 14.4342 5.34449 11.8971 5.34449 8.77869C5.34449 5.66023 7.88149 3.12314 11 3.12314C14.1185 3.12314 16.6555 5.66019 16.6555 8.77864C16.6554 11.8971 14.1184 14.4342 11 14.4342Z" fill="#F2994A"/>
<path d="M11 4.17761C8.46293 4.17761 6.39893 6.24166 6.39893 8.77866C6.39893 11.3157 8.46289 13.3797 11 13.3797C13.5371 13.3797 15.601 11.3157 15.601 8.77866C15.601 6.24166 13.537 4.17761 11 4.17761ZM13.3579 8.33256L10.4944 10.4241C10.4035 10.4905 10.2944 10.5256 10.1834 10.5256C10.1548 10.5256 10.126 10.5232 10.0974 10.5185C9.95781 10.4954 9.83329 10.4172 9.75191 10.3013L8.89537 9.08181C8.728 8.84346 8.78554 8.51462 9.0238 8.34726C9.26211 8.17989 9.5909 8.23739 9.75831 8.47569L10.3062 9.25574L12.736 7.48105C12.9711 7.30939 13.301 7.36061 13.4727 7.59582C13.6444 7.83094 13.593 8.16077 13.3579 8.33256Z" fill="#F2994A"/>
</svg>
