<svg width="65" height="57" viewBox="0 0 65 57" fill="none" xmlns="http://www.w3.org/2000/svg">
<path d="M32.5 56.9375L41.3867 56.9359C42.036 56.9359 42.6856 56.8619 43.3168 56.7164L58.4241 53.2344C62.2781 52.3463 65 48.942 65 45.0391V18.9246C65 15.8974 63.3458 13.091 60.683 11.6007L48.2417 4.63692C43.8733 2.19167 39.7024 3.89754 36.5343 7.77685L18.1353 0.698326C13.3254 -1.15252 7.90131 1.17148 5.9932 5.92892C4.07647 10.7077 6.45468 16.1321 11.3179 18.0037L21.3281 20.375L9.39453 19.2146C4.21434 19.2146 0 23.38 0 28.4999C0 33.6199 4.21434 37.7854 9.39453 37.7854H20.5201C20.0535 41.1173 21.6235 44.2977 24.372 46.0381C22.6811 51.4452 26.7927 56.9375 32.5 56.9375ZM32.5 50.8421C29.3059 50.8421 29.3109 46.1998 32.5 46.1998C33.6219 46.1998 34.5312 45.2905 34.5312 44.1686V43.2982C34.5312 42.1763 33.6219 41.267 32.5 41.267H28.9453C25.7513 41.267 25.756 36.6247 28.9453 36.6247H32.5C33.6219 36.6247 34.5312 35.7153 34.5312 34.5934V33.723C34.5312 32.6011 33.6219 31.6918 32.5 31.6918H9.39453C5.02354 31.6918 5.03052 25.3084 9.39453 25.3084H32.5C33.6219 25.3084 34.5312 24.3991 34.5312 23.2772V21.8005C34.5313 21.3899 34.4069 20.989 34.1745 20.6506C33.9421 20.3122 33.6126 20.0521 33.2295 19.9047L13.5064 12.3148C9.50079 10.7736 11.8012 4.78863 15.9467 6.38392L37.0906 14.5205C37.4899 14.6741 37.9275 14.6978 38.341 14.5881C38.7545 14.4784 39.1228 14.2409 39.3934 13.9096L42.1564 10.5267C42.8953 9.62186 44.2319 9.37595 45.2653 9.95435L57.7067 16.9182C58.4466 17.3325 58.9062 18.1012 58.9062 18.9247V45.0391C58.9062 46.1171 58.1453 47.0455 57.0558 47.2966L41.9482 50.7785C41.7641 50.8209 41.5757 50.8423 41.3867 50.8423H32.5V50.8421Z" fill="#2F80ED"/>
</svg>
