<svg width="32" height="50" viewBox="0 0 32 50" fill="none" xmlns="http://www.w3.org/2000/svg">
<path d="M0.792969 14.2031H8.5957C8.86133 10.0859 11.6172 7.46289 15.9004 7.46289C20.084 7.46289 22.873 10.0195 22.873 13.5391C22.873 16.8262 21.4785 18.6191 17.3613 21.1094C12.7793 23.7988 10.8535 26.7871 11.1523 31.7012L11.1855 34.0586H18.8887V32.1328C18.8887 28.8125 20.1172 27.0859 24.4668 24.5625C28.9824 21.873 31.5059 18.3203 31.5059 13.2402C31.5059 5.93555 25.4297 0.689453 16.332 0.689453C6.4707 0.689453 1.05859 6.40039 0.792969 14.2031ZM15.1367 49.6641C17.8262 49.6641 19.9512 47.5723 19.9512 44.9492C19.9512 42.3262 17.8262 40.2676 15.1367 40.2676C12.4473 40.2676 10.2891 42.3262 10.2891 44.9492C10.2891 47.5723 12.4473 49.6641 15.1367 49.6641Z" fill="#F2994A"/>
</svg>
