<svg width="26" height="26" viewBox="0 0 26 26" fill="none" xmlns="http://www.w3.org/2000/svg">
<path d="M13 2.36365C9.58344 2.36365 5.90906 3.17072 5.90906 4.94215V20.4132C5.90906 22.1846 9.58344 22.9917 13 22.9917C16.4165 22.9917 20.0909 22.1846 20.0909 20.4132V4.94215C20.0909 3.17072 16.4165 2.36365 13 2.36365ZM18.8016 20.4035C18.7043 20.7613 16.771 21.7024 13 21.7024C9.22889 21.7024 7.29565 20.7613 7.19831 20.4132V19.3998C8.57008 20.0909 10.8359 20.4132 13 20.4132C15.164 20.4132 17.4305 20.0877 18.8016 19.3992V20.4035ZM18.8016 17.825C18.7043 18.1828 16.771 19.1239 13 19.1239C9.22889 19.1239 7.29565 18.1828 7.19831 17.8347V16.8213C8.57008 17.5124 10.8359 17.8347 13 17.8347C15.164 17.8347 17.4305 17.5091 18.8016 16.8207V17.825ZM18.8016 15.2465C18.7043 15.6043 16.771 16.5454 13 16.5454C9.22889 16.5454 7.29565 15.6043 7.19831 15.2562V14.2428C8.57008 14.9339 10.8359 15.2562 13 15.2562C15.164 15.2562 17.4305 14.9306 18.8016 14.2422V15.2465ZM18.8016 12.668C18.7043 13.0258 16.771 13.9669 13 13.9669C9.22889 13.9669 7.29565 13.0258 7.19831 12.6777V11.6643C8.57008 12.3554 10.8359 12.6777 13 12.6777C15.164 12.6777 17.4305 12.3521 18.8016 11.6637V12.668ZM18.8016 10.0895C18.7043 10.4473 16.771 11.3884 13 11.3884C9.22889 11.3884 7.29565 10.4473 7.19831 10.0992V9.08581C8.57008 9.77363 10.8359 10.0992 13 10.0992C15.164 10.0992 17.4305 9.77363 18.8016 9.08517V10.0895ZM18.8016 7.51099C18.7043 7.86876 16.771 8.80991 13 8.80991C9.22889 8.80991 7.29565 7.86876 7.19831 7.52066V6.50731C8.57008 7.19512 10.8359 7.52066 13 7.52066C15.164 7.52066 17.4305 7.19512 18.8016 6.50666V7.51099ZM13 6.23141C9.23469 6.23141 7.3021 5.29283 7.19831 4.95376V4.94989C7.3021 4.59083 9.23469 3.6529 13 3.6529C16.7388 3.6529 18.6727 4.5773 18.8016 4.94215C18.6727 5.30701 16.7388 6.23141 13 6.23141Z" fill="white"/>
</svg>
