<?xml version="1.0" encoding="UTF-8"?>
<svg width="65px" height="57px" viewBox="0 0 65 57" version="1.1" xmlns="http://www.w3.org/2000/svg" xmlns:xlink="http://www.w3.org/1999/xlink">
    <title>game-icon-rock-big</title>
    <g id="Page-1" stroke="none" stroke-width="1" fill="none" fill-rule="evenodd">
        <g id="game-icon-rock-big" fill="#FFFFFF" fill-rule="nonzero">
            <path d="M51.9066,6.0359 C49.0627,1.7324 43.5139,0.66917 39.3619,3.04129 C35.6201,-0.9538 29.3142,-0.90606 25.6086,3.0385 C19.6215,-0.39178 11.8075,3.68024 11.5586,10.758 C5.69334,9.3817 0,13.7735 0,19.7947 L0,27.025 C0,31.1816 1.81289,35.1442 4.97402,37.8965 L17.3786,48.6978 C17.9184,49.1678 17.7734,49.4053 17.7734,52.875 C17.7734,55.1186 19.5923,56.9375 21.8359,56.9375 L53.8281,56.9375 C56.0718,56.9375 57.8906,55.1186 57.8906,52.875 C57.8906,49.8899 57.7618,48.9718 58.3962,47.496 L63.8342,34.8443 C64.6078,33.0445 65,31.1408 65,29.1863 L65,14.6574 C65,7.9493 58.1047,3.40145 51.9066,6.0359 Z M58.9062027,29.1863 C58.9071,30.3046 58.6789,31.4112 58.2357,32.4379 L52.7976,45.0894 C52.1337,46.6346 51.7969,48.2683 51.7969,49.9454 L51.7969,50.8437 L23.8672,50.8437 L23.8672,49.5379 C23.8672,47.4596 22.9607,45.4783 21.3802,44.1021 L8.97559,33.3009 C7.14416,31.7062 6.09375,29.4186 6.09375,27.0249 L6.09375,19.7945 C6.09375,15.5787 12.6953,15.5369 12.6953,19.8805 L12.6953,25.1145 C12.6953,25.4049 12.7575,25.6918 12.8778,25.9561 C12.9981,26.2204 13.1737,26.4558 13.3927,26.6464 L14.2813,27.4202 C14.5753,27.6762 14.9367,27.8422 15.3225,27.8984 C15.7082,27.9546 16.102,27.8986 16.4568,27.7371 C16.8116,27.5756 17.1124,27.3154 17.3233,26.9876 C17.5343,26.6598 17.6465,26.2782 17.6465,25.8884 L17.6465,11.0892 C17.6465,6.8875 24.248,6.8077 24.248,11.1752 L24.248,14.5713 C24.248,15.6931 25.1575,16.6025 26.2793,16.6025 L27.168,16.6025 C28.2897,16.6025 29.1992,15.6931 29.1992,14.5713 L29.1992,9.3481 C29.1992,5.1416 35.8008,5.07292 35.8008,9.434 L35.8008,14.5713 C35.8008,15.6931 36.7101,16.6025 37.832,16.6025 L38.7207,16.6025 C39.8426,16.6025 40.752,15.6931 40.752,14.5713 L40.752,11.0891 C40.752,6.8958 47.3535,6.8006 47.3535,11.175 L47.3535,14.5712 C47.3535,15.6929 48.2629,16.6024 49.3848,16.6024 L50.2734,16.6024 C51.3953,16.6024 52.3047,15.6929 52.3047,14.5712 C52.3047,10.3632 58.9062027,10.3039 58.9062027,14.6571 L58.9062027,29.1863 Z" id="Shape"></path>
        </g>
    </g>
</svg>