<svg width="65" height="65" viewBox="0 0 65 65" fill="none" xmlns="http://www.w3.org/2000/svg">
<path d="M51.9066 10.0359C49.0627 5.7324 43.5139 4.66917 39.3619 7.04129C35.6201 3.0462 29.3142 3.09394 25.6086 7.0385C19.6215 3.60822 11.8075 7.68024 11.5586 14.758C5.69334 13.3817 0 17.7735 0 23.7947V31.025C0 35.1816 1.81289 39.1442 4.97402 41.8965L17.3786 52.6978C17.9184 53.1678 17.7734 53.4053 17.7734 56.875C17.7734 59.1186 19.5923 60.9375 21.8359 60.9375H53.8281C56.0718 60.9375 57.8906 59.1186 57.8906 56.875C57.8906 53.8899 57.7618 52.9718 58.3962 51.496L63.8342 38.8443C64.6078 37.0445 65 35.1408 65 33.1863V18.6574C65 11.9493 58.1047 7.40145 51.9066 10.0359ZM58.9062 33.1863C58.9071 34.3046 58.6789 35.4112 58.2357 36.4379L52.7976 49.0894C52.1337 50.6346 51.7969 52.2683 51.7969 53.9454V54.8437H23.8672V53.5379C23.8672 51.4596 22.9607 49.4783 21.3802 48.1021L8.97559 37.3009C7.14416 35.7062 6.09375 33.4186 6.09375 31.0249V23.7945C6.09375 19.5787 12.6953 19.5369 12.6953 23.8805V29.1145C12.6953 29.4049 12.7575 29.6918 12.8778 29.9561C12.9981 30.2204 13.1737 30.4558 13.3927 30.6464L14.2813 31.4202C14.5753 31.6762 14.9367 31.8422 15.3225 31.8984C15.7082 31.9546 16.102 31.8986 16.4568 31.7371C16.8116 31.5756 17.1124 31.3154 17.3233 30.9876C17.5343 30.6598 17.6465 30.2782 17.6465 29.8884V15.0892C17.6465 10.8875 24.248 10.8077 24.248 15.1752V18.5713C24.248 19.6931 25.1575 20.6025 26.2793 20.6025H27.168C28.2897 20.6025 29.1992 19.6931 29.1992 18.5713V13.3481C29.1992 9.1416 35.8008 9.07292 35.8008 13.434V18.5713C35.8008 19.6931 36.7101 20.6025 37.832 20.6025H38.7207C39.8426 20.6025 40.752 19.6931 40.752 18.5713V15.0891C40.752 10.8958 47.3535 10.8006 47.3535 15.175V18.5712C47.3535 19.6929 48.2629 20.6024 49.3848 20.6024H50.2734C51.3953 20.6024 52.3047 19.6929 52.3047 18.5712C52.3047 14.3632 58.9062 14.3039 58.9062 18.6571V33.1863Z" fill="#2F80ED"/>
</svg>
