<svg width="65" height="75" viewBox="0 0 65 75" fill="none" xmlns="http://www.w3.org/2000/svg">
<g clip-path="url(#clip0)">
<path d="M54.0563 16.3426V14.772C54.0563 8.44434 48.1773 3.64493 42.0082 5.26195C38.2898 -1.91996 28.3568 -1.62253 24.8903 5.37034C18.9011 3.83805 12.9343 8.40676 12.9343 14.7987V33.0988C10.0393 32.0212 6.65074 32.3635 3.92669 34.3859C-0.332402 37.5482 -1.26663 43.5748 1.81564 47.9014L19.2218 72.3366C19.6512 72.9392 20.2184 73.4305 20.8762 73.7695C21.5339 74.1085 22.2632 74.2854 23.0032 74.2854H55.3431C57.5055 74.2854 59.3817 72.7926 59.8673 70.6853L64.2466 51.6847C64.7471 49.5117 65 47.289 65.0004 45.0591V25.9705C65.0004 20.077 59.8464 15.5253 54.0563 16.3426ZM58.0357 45.0589C58.0357 46.761 57.8421 48.464 57.4604 50.1205L53.4958 67.321H24.1994L7.48573 43.8605C5.39079 40.9195 9.6654 37.6541 11.7505 40.5807L15.6865 46.1056C16.9915 47.9375 19.8985 47.0178 19.8985 44.7587V14.7987C19.8985 11.0779 25.2046 11.199 25.2046 14.8989V37.1424C25.2046 38.4246 26.2439 39.4638 27.526 39.4638H28.5208C29.8029 39.4638 30.8422 38.4246 30.8422 37.1424V9.72055C30.8422 5.99712 36.1482 6.12088 36.1482 9.8208V37.1424C36.1482 38.4246 37.1875 39.4638 38.4697 39.4638H39.4644C40.7465 39.4638 41.7858 38.4246 41.7858 37.1424V14.6717C41.7858 10.947 47.0917 11.0721 47.0917 14.772V37.1424C47.0917 38.4246 48.131 39.4638 49.4132 39.4638H50.408C51.6902 39.4638 52.7295 38.4246 52.7295 37.1424V26.0708C52.7295 22.2634 58.0354 22.3507 58.0354 25.9705V45.0589H58.0357Z" fill="#2F80ED"/>
</g>
<defs>
<clipPath id="clip0">
<rect width="65" height="74.2857" fill="white"/>
</clipPath>
</defs>
</svg>
