<svg width="65" height="65" viewBox="0 0 65 65" fill="none" xmlns="http://www.w3.org/2000/svg">
<g clip-path="url(#clip0)">
<path fill-rule="evenodd" clip-rule="evenodd" d="M64.1235 25.0343C68.2475 42.5003 57.4305 60.0003 39.9655 64.1233C22.5005 68.2463 5.00051 57.4303 0.876512 39.9653C-3.24649 22.5003 7.57051 4.99925 25.0355 0.876252C42.4995 -3.24575 60.0005 7.56925 64.1235 25.0343Z" fill="#2C2D35"/>
<path fill-rule="evenodd" clip-rule="evenodd" d="M32.4767 60.0003C20.0157 60.0003 8.72974 51.4723 5.74274 38.8173C2.41774 24.7373 10.5667 10.6313 24.1247 6.3113C12.2767 10.0873 4.56274 21.3383 5.02474 33.5123C5.45274 21.4383 13.8567 10.6523 26.1837 7.7413C28.3067 7.2403 30.4327 7.0003 32.5237 7.0003C44.9857 7.0003 56.2717 15.5283 59.2587 28.1833C59.6777 29.9573 59.9097 31.7323 59.9757 33.4873C60.0617 31.0963 59.8387 28.6543 59.2657 26.2133C59.9017 28.9193 60.1137 31.6253 59.9447 34.2633C59.9547 33.9063 59.9567 33.5483 59.9527 33.1893C59.7127 43.2923 53.8797 52.5383 44.8207 57.0863C42.9497 58.0213 40.9417 58.7563 38.8177 59.2583C36.6947 59.7593 34.5677 60.0003 32.4767 60.0003ZM54.2007 15.6063C49.1927 9.1823 41.4837 5.2123 33.1967 5.0083C41.4847 5.2123 49.1917 9.1813 54.2007 15.6063ZM24.2397 6.2753C24.2857 6.2603 24.3307 6.2463 24.3777 6.2323C24.3307 6.2463 24.2857 6.2603 24.2397 6.2753Z" fill="#343539"/>
<path fill-rule="evenodd" clip-rule="evenodd" d="M32.4387 61.0193C19.9787 61.0193 8.69069 52.4903 5.70369 39.8363C5.15069 37.4933 4.91669 35.1493 4.97169 32.8503C4.99769 34.8273 5.23069 36.8313 5.70369 38.8363C8.69169 51.4913 19.9767 60.0193 32.4387 60.0193C34.5297 60.0193 36.6557 59.7793 38.7787 59.2783C40.9177 58.7733 42.9387 58.0313 44.8207 57.0863C53.5737 52.7093 59.3257 43.9513 59.9447 34.2633C59.6227 46.4363 51.1877 57.3483 38.7787 60.2783C36.6547 60.7793 34.5307 61.0193 32.4387 61.0193Z" fill="#3C3D46"/>
<path fill-rule="evenodd" clip-rule="evenodd" d="M44.8203 57.0862C53.8793 52.5382 59.7123 43.2922 59.9523 33.1892C59.9563 33.5482 59.9542 33.9062 59.9443 34.2632C59.3253 43.9512 53.5733 52.7092 44.8203 57.0862Z" fill="#6E729F"/>
<path fill-rule="evenodd" clip-rule="evenodd" d="M59.2586 26.1832C58.3196 22.2032 56.5596 18.6322 54.2006 15.6062C56.5596 18.6322 58.3196 22.2032 59.2586 26.1832ZM26.1836 5.74124C28.2886 5.24424 30.3926 5.00424 32.4666 5.00024C30.3936 5.00424 28.2876 5.24524 26.1836 5.74124ZM33.1966 5.00824C32.9726 5.00224 32.7486 5.00024 32.5236 5.00024C32.7486 5.00024 32.9726 5.00224 33.1966 5.00824Z" fill="#575C88"/>
<path fill-rule="evenodd" clip-rule="evenodd" d="M5.02455 33.5122C4.56255 21.3382 12.2766 10.0872 24.1246 6.31124C24.1256 6.31124 24.1276 6.31024 24.1286 6.31024C24.1386 6.30724 24.1496 6.30324 24.1596 6.30024C24.1616 6.29924 24.1656 6.29824 24.1676 6.29824C24.1776 6.29424 24.1876 6.29124 24.1976 6.28824C24.1996 6.28824 24.2026 6.28624 24.2056 6.28624C24.2166 6.28224 24.2256 6.27924 24.2366 6.27624C24.2376 6.27624 24.2386 6.27524 24.2396 6.27524C24.2856 6.26024 24.3306 6.24624 24.3776 6.23224C24.3796 6.23124 24.3836 6.23024 24.3856 6.22924C24.3946 6.22724 24.4036 6.22424 24.4116 6.22224C24.4156 6.22024 24.4216 6.21824 24.4266 6.21724C24.4336 6.21524 24.4416 6.21224 24.4496 6.21024C24.4556 6.20824 24.4606 6.20724 24.4666 6.20524C24.4736 6.20324 24.4806 6.20124 24.4876 6.19924C24.4936 6.19724 24.5006 6.19524 24.5066 6.19324C24.5136 6.19124 24.5206 6.18824 24.5276 6.18624C24.5336 6.18524 24.5396 6.18324 24.5456 6.18124C24.5526 6.17924 24.5596 6.17724 24.5666 6.17524C24.5736 6.17324 24.5816 6.17024 24.5886 6.16824C24.5946 6.16624 24.6006 6.16424 24.6056 6.16324C24.6176 6.15924 24.6326 6.15524 24.6446 6.15124C24.6486 6.15024 24.6546 6.14824 24.6586 6.14724C24.6666 6.14524 24.6756 6.14224 24.6836 6.14024C24.6896 6.13824 24.6946 6.13624 24.7016 6.13424C24.7096 6.13224 24.7166 6.13024 24.7246 6.12824C24.7296 6.12624 24.7356 6.12424 24.7406 6.12324C24.7486 6.12124 24.7566 6.11824 24.7646 6.11624C24.7696 6.11424 24.7756 6.11324 24.7806 6.11124C24.7896 6.10924 24.7976 6.10624 24.8056 6.10424C24.8116 6.10224 24.8146 6.10124 24.8206 6.10024C24.8296 6.09724 24.8376 6.09524 24.8466 6.09224C24.8516 6.09124 24.8566 6.08924 24.8606 6.08824C24.8706 6.08524 24.8806 6.08224 24.8906 6.08024C24.8936 6.07824 24.8976 6.07724 24.9006 6.07624C24.9146 6.07324 24.9276 6.06924 24.9416 6.06524C24.9436 6.06424 24.9446 6.06424 24.9466 6.06324C24.9586 6.06024 24.9696 6.05724 24.9806 6.05424C24.9846 6.05224 24.9906 6.05124 24.9946 6.05024C25.0036 6.04724 25.0126 6.04524 25.0216 6.04224C25.0266 6.04124 25.0316 6.03924 25.0356 6.03824C25.0446 6.03624 25.0536 6.03324 25.0626 6.03124C25.0666 6.02924 25.0716 6.02824 25.0756 6.02724C25.0846 6.02424 25.0956 6.02124 25.1046 6.01924C25.1086 6.01824 25.1126 6.01724 25.1166 6.01524C25.1276 6.01324 25.1366 6.01024 25.1476 6.00724C25.1506 6.00624 25.1536 6.00524 25.1566 6.00424C25.1676 6.00124 25.1796 5.99824 25.1916 5.99524C25.1926 5.99424 25.1966 5.99424 25.1976 5.99324C25.2256 5.98624 25.2526 5.97824 25.2796 5.97124C25.2826 5.97024 25.2846 5.96924 25.2876 5.96824C25.2996 5.96524 25.3106 5.96224 25.3216 5.95924C25.3246 5.95824 25.3266 5.95824 25.3306 5.95724C25.3406 5.95424 25.3516 5.95124 25.3626 5.94824C25.3656 5.94824 25.3706 5.94624 25.3736 5.94524C25.3836 5.94324 25.3926 5.94024 25.4036 5.93724C25.4076 5.93624 25.4116 5.93524 25.4156 5.93424C25.4246 5.93224 25.4346 5.92924 25.4446 5.92624C25.4476 5.92624 25.4526 5.92424 25.4556 5.92324C25.4676 5.92024 25.4786 5.91724 25.4906 5.91424C25.4926 5.91424 25.4936 5.91324 25.4966 5.91324C25.5236 5.90624 25.5526 5.89824 25.5796 5.89124C25.5816 5.89124 25.5836 5.89024 25.5856 5.89024C25.5966 5.88724 25.6096 5.88324 25.6206 5.88024C25.6246 5.87924 25.6276 5.87924 25.6316 5.87824C25.6416 5.87524 25.6526 5.87224 25.6616 5.87024C25.6656 5.86924 25.6696 5.86824 25.6736 5.86724C25.6836 5.86424 25.6926 5.86224 25.7036 5.85924C25.7076 5.85824 25.7116 5.85724 25.7156 5.85624C25.7256 5.85424 25.7356 5.85124 25.7456 5.84924C25.7496 5.84824 25.7526 5.84724 25.7566 5.84624C25.7666 5.84324 25.7776 5.84024 25.7876 5.83824C25.7916 5.83724 25.7946 5.83624 25.7986 5.83524C25.8116 5.83224 25.8236 5.82924 25.8376 5.82524C25.8386 5.82524 25.8376 5.82524 25.8386 5.82524C25.8526 5.82224 25.8666 5.81824 25.8806 5.81524C25.8836 5.81424 25.8836 5.81424 25.8856 5.81324C25.8976 5.81124 25.9106 5.80724 25.9216 5.80424C25.9256 5.80324 25.9296 5.80324 25.9336 5.80224C25.9436 5.79924 25.9526 5.79724 25.9626 5.79524C25.9666 5.79324 25.9726 5.79224 25.9776 5.79124C25.9866 5.78924 25.9956 5.78724 26.0046 5.78424C26.0086 5.78324 26.0136 5.78224 26.0186 5.78124C26.0276 5.77924 26.0356 5.77724 26.0446 5.77524C26.0496 5.77324 26.0556 5.77224 26.0606 5.77124C26.0686 5.76924 26.0786 5.76624 26.0866 5.76424C26.0916 5.76324 26.0956 5.76224 26.1016 5.76124C26.1106 5.75924 26.1206 5.75624 26.1296 5.75424C26.1346 5.75324 26.1376 5.75224 26.1426 5.75124C26.1566 5.74824 26.1706 5.74524 26.1836 5.74124C28.2876 5.24524 30.3936 5.00424 32.4666 5.00024C32.4856 5.00024 32.5056 5.00024 32.5236 5.00024C32.7486 5.00024 32.9726 5.00224 33.1966 5.00824C41.4836 5.21224 49.1926 9.18224 54.2006 15.6062C56.5596 18.6322 58.3196 22.2032 59.2586 26.1832C59.2616 26.1932 59.2636 26.2032 59.2656 26.2132C59.8386 28.6542 60.0616 31.0962 59.9756 33.4872C59.9096 31.7322 59.6776 29.9572 59.2586 28.1832C56.2716 15.5282 44.9856 7.00024 32.5236 7.00024C30.4326 7.00024 28.3066 7.24024 26.1836 7.74124C13.8566 10.6522 5.45255 21.4382 5.02455 33.5122Z" fill="#3C3D46"/>
<path fill-rule="evenodd" clip-rule="evenodd" d="M32.9785 41.6122V50.5002L44.0025 35.0032L32.9785 41.6122Z" fill="#FFFFFE"/>
<path fill-rule="evenodd" clip-rule="evenodd" d="M43.5815 32.1342L32.9785 14.5002V27.3252L43.5815 32.1342Z" fill="#FFFFFE"/>
<path fill-rule="evenodd" clip-rule="evenodd" d="M32.9785 28.3372V39.2782L43.4975 33.1182L32.9785 28.3372Z" fill="#FFFFFE"/>
<path fill-rule="evenodd" clip-rule="evenodd" d="M21.4473 32.1342L32.0493 14.5002V27.3252L21.4473 32.1342Z" fill="#FFFFFE"/>
<path fill-rule="evenodd" clip-rule="evenodd" d="M32.0494 28.3372V39.2782L21.5024 33.1182L32.0494 28.3372Z" fill="#FFFFFE"/>
<path fill-rule="evenodd" clip-rule="evenodd" d="M32.0226 41.6122V50.5002L20.9976 35.0032L32.0226 41.6122Z" fill="#FFFFFE"/>
</g>
<defs>
<clipPath id="clip0">
<rect width="65" height="65" fill="white"/>
</clipPath>
</defs>
</svg>
