<svg width="145" height="204" viewBox="0 0 145 204" fill="none" xmlns="http://www.w3.org/2000/svg">
<path d="M60.5454 1.62207C28.0055 1.62207 1.62695 28.0006 1.62695 60.5405V162.586V188.182C1.62695 196.022 7.95783 202.378 15.7678 202.378C23.577 202.378 29.9079 196.022 29.9079 188.182V168.927C29.9079 161.087 36.2388 154.731 44.0488 154.731C51.858 154.731 58.1889 161.087 58.1889 168.927V188.182C58.1889 196.022 64.5197 202.378 72.3289 202.378C80.1381 202.378 86.469 196.022 86.469 188.182V168.927C86.469 161.087 92.7999 154.731 100.61 154.731C108.419 154.731 114.751 161.087 114.751 168.927V188.182C114.751 196.022 121.082 202.378 128.891 202.378C136.7 202.378 143.032 196.022 143.032 188.182V162.586V60.5405C143.032 28.0006 116.653 1.62207 84.1133 1.62207H60.5454V1.62207Z" fill="#0049D8" fill-opacity="0.5"/>
<path d="M84.1121 1.62207H76.2559C108.796 1.62207 135.174 28.0006 135.174 60.5405V162.586V188.182C135.174 194.652 130.858 200.1 124.962 201.811C126.21 202.173 127.525 202.378 128.89 202.378C136.699 202.378 143.031 196.022 143.031 188.182V162.586V60.5405C143.031 28.0006 116.652 1.62207 84.1121 1.62207Z" fill="#D6D1CF"/>
<path d="M60.5438 1.26904H68.4C35.8593 1.26904 9.48074 27.6476 9.48074 60.1875V162.233V187.829C9.48074 194.3 13.7973 199.748 19.6935 201.458C18.4447 201.821 17.1302 202.025 15.7654 202.025C7.95539 202.025 1.62451 195.669 1.62451 187.829V162.233V60.1875C1.62451 27.6476 28.0039 1.26904 60.5438 1.26904Z" fill="white"/>
<path d="M128.89 204C120.198 204 113.127 196.904 113.127 188.182V168.927C113.127 161.993 107.511 156.353 100.608 156.353C93.7046 156.353 88.089 161.993 88.089 168.927V188.182C88.089 196.904 81.0177 204 72.3263 204C63.6348 204 56.5635 196.904 56.5635 188.182V168.927C56.5635 161.993 50.9479 156.353 44.0445 156.353C37.1411 156.353 31.5255 161.993 31.5255 168.927V188.182C31.5255 196.904 24.4542 204 15.7627 204C7.07125 204 0 196.904 0 188.182V60.5403C0 27.1578 27.1578 0 60.5403 0H84.1082C117.491 0 144.648 27.1586 144.648 60.5403V188.182C144.653 196.904 137.581 204 128.89 204ZM100.609 153.109C109.3 153.109 116.372 160.204 116.372 168.927V188.182C116.372 195.116 121.987 200.756 128.891 200.756C135.794 200.756 141.41 195.116 141.41 188.182V60.5403C141.41 28.9467 115.707 3.24369 84.113 3.24369H60.5452C28.9516 3.24369 3.24856 28.9467 3.24856 60.5403V188.182C3.24856 195.116 8.86421 200.756 15.7676 200.756C22.671 200.756 28.2866 195.116 28.2866 188.182V168.927C28.2866 160.205 35.3579 153.109 44.0494 153.109C52.7408 153.109 59.8121 160.204 59.8121 168.927V188.182C59.8121 195.116 65.4277 200.756 72.3311 200.756C79.2345 200.756 84.8502 195.116 84.8502 188.182V168.927C84.8469 160.205 91.9174 153.109 100.609 153.109Z" fill="#0049D8"/>
<path d="M24 72.6098L24.7522 66.9163C25.363 62.2937 27.9122 58.1496 31.7627 55.5201V55.5201C37.4878 51.6103 45.0528 51.7223 50.6596 55.8L50.8561 55.9429C54.1437 58.3338 56.4493 61.839 57.343 65.8047L59 73.1577" stroke="white" stroke-width="3"/>
<path d="M85 71.6098L85.7522 65.9163C86.363 61.2937 88.9122 57.1496 92.7627 54.5201V54.5201C98.4878 50.6103 106.053 50.7223 111.66 54.8L111.856 54.9429C115.144 57.3338 117.449 60.839 118.343 64.8047L120 72.1577" stroke="white" stroke-width="3"/>
<path d="M99 103C99 103 83.1396 114.875 71.5 114.999C60.2197 115.12 45 103 45 103" stroke="white" stroke-width="3" stroke-linecap="round"/>
</svg>
