<svg width="30" height="43" viewBox="0 0 30 43" fill="none" xmlns="http://www.w3.org/2000/svg">
<path d="M12.5571 0.336426C5.80829 0.336426 0.337402 5.80732 0.337402 12.5561V33.7203V39.0289C0.337402 40.6549 1.65042 41.9731 3.27021 41.9731C4.88983 41.9731 6.20285 40.6549 6.20285 39.0289V35.0353C6.20285 33.4093 7.51587 32.0911 9.13566 32.0911C10.7553 32.0911 12.0683 33.4093 12.0683 35.0353V39.0289C12.0683 40.6549 13.3813 41.9731 15.0009 41.9731C16.6206 41.9731 17.9336 40.6549 17.9336 39.0289V35.0353C17.9336 33.4093 19.2466 32.0911 20.8664 32.0911C22.486 32.0911 23.7992 33.4093 23.7992 35.0353V39.0289C23.7992 40.6549 25.1122 41.9731 26.7318 41.9731C28.3515 41.9731 29.6647 40.6549 29.6647 39.0289V33.7203V12.5561C29.6647 5.80732 24.1938 0.336426 17.445 0.336426H12.5571Z" fill="#0049D8" fill-opacity="0.5"/>
<path d="M17.4446 0.336426H15.8152C22.5639 0.336426 28.0348 5.80732 28.0348 12.5561V33.7203V39.0287C28.0348 40.3707 27.1396 41.5007 25.9167 41.8554C26.1755 41.9306 26.4483 41.973 26.7314 41.973C28.351 41.973 29.6642 40.6547 29.6642 39.0287V33.7203V12.5561C29.6644 5.80732 24.1933 0.336426 17.4446 0.336426Z" fill="#D6D1CF"/>
<path d="M12.557 0.263184H14.1864C7.43743 0.263184 1.96653 5.73407 1.96653 12.4828V33.6471V38.9557C1.96653 40.2976 2.86178 41.4276 4.08466 41.7823C3.82565 41.8575 3.55302 41.8999 3.26997 41.8999C1.65018 41.8999 0.337158 40.5817 0.337158 38.9557V33.6471V12.4828C0.337158 5.73407 5.80822 0.263184 12.557 0.263184Z" fill="white"/>
<path d="M17.7704 28.45C19.2101 28.45 20.3773 27.2828 20.3773 25.8432V22.7476H15.1636V25.8432C15.1636 27.2828 16.3306 28.45 17.7704 28.45Z" fill="#FF4397"/>
<path d="M11.1719 17.4629C11.0858 17.4629 10.9998 17.4301 10.9341 17.3643L6.04627 12.4764C5.91492 12.345 5.91492 12.1321 6.04627 12.0007C6.17762 11.8694 6.39054 11.8694 6.52189 12.0007L11.4099 16.8887C11.5412 17.02 11.5412 17.233 11.4099 17.3643C11.3441 17.4299 11.258 17.4629 11.1719 17.4629Z" fill="white"/>
<path d="M6.28408 17.4629C6.19797 17.4629 6.11203 17.4301 6.04627 17.3643C5.91492 17.233 5.91492 17.02 6.04627 16.8887L10.9342 12.0007C11.0656 11.8694 11.2785 11.8694 11.4099 12.0007C11.5412 12.1321 11.5412 12.345 11.4099 12.4764L6.52189 17.3643C6.45613 17.4299 6.37019 17.4629 6.28408 17.4629Z" fill="white"/>
<path d="M23.7175 17.4629C23.6313 17.4629 23.5454 17.4301 23.4796 17.3643L18.5917 12.4764C18.4603 12.345 18.4603 12.1321 18.5917 12.0007C18.723 11.8694 18.936 11.8694 19.0673 12.0007L23.9553 16.8887C24.0866 17.02 24.0866 17.233 23.9553 17.3643C23.8897 17.4299 23.8036 17.4629 23.7175 17.4629Z" fill="white"/>
<path d="M18.8295 17.4629C18.7434 17.4629 18.6574 17.4301 18.5917 17.3643C18.4603 17.233 18.4603 17.02 18.5917 16.8887L23.4796 12.0007C23.611 11.8694 23.8239 11.8694 23.9553 12.0007C24.0866 12.1321 24.0866 12.345 23.9553 12.4764L19.0673 17.3643C19.0015 17.4299 18.9154 17.4629 18.8295 17.4629Z" fill="#F2F2F2"/>
<path d="M20.3774 23.0839H9.62397C9.43829 23.0839 9.2876 22.9332 9.2876 22.7475C9.2876 22.5618 9.43829 22.4111 9.62397 22.4111H20.3774C20.5631 22.4111 20.7137 22.5618 20.7137 22.7475C20.7137 22.9332 20.5631 23.0839 20.3774 23.0839Z" fill="white"/>
<path d="M17.7706 28.7864C16.1478 28.7864 14.8274 27.4659 14.8274 25.8431V22.7475C14.8274 22.5618 14.9781 22.4111 15.1638 22.4111H20.3775C20.5632 22.4111 20.7139 22.5618 20.7139 22.7475V25.8431C20.7139 27.4659 19.3934 28.7864 17.7706 28.7864ZM15.5001 23.0839V25.8431C15.5001 27.0951 16.5187 28.1136 17.7706 28.1136C19.0226 28.1136 20.0411 27.0951 20.0411 25.8431V23.0839H15.5001Z" fill="#F2F2F2"/>
<path d="M17.7705 25.6907C17.5848 25.6907 17.4341 25.54 17.4341 25.3544V22.7475C17.4341 22.5618 17.5848 22.4111 17.7705 22.4111C17.9561 22.4111 18.1068 22.5618 18.1068 22.7475V25.3544C18.1068 25.54 17.9561 25.6907 17.7705 25.6907Z" fill="#F2F2F2"/>
<path d="M26.7317 42.3095C24.9291 42.3095 23.4625 40.8378 23.4625 39.0288V35.0353C23.4625 33.5973 22.2978 32.4274 20.866 32.4274C19.4343 32.4274 18.2696 33.5973 18.2696 35.0353V39.0288C18.2696 40.8377 16.803 42.3095 15.0004 42.3095C13.1978 42.3095 11.7312 40.8378 11.7312 39.0288V35.0353C11.7312 33.5973 10.5666 32.4274 9.1348 32.4274C7.70304 32.4274 6.53836 33.5973 6.53836 35.0353V39.0288C6.53836 40.8377 5.07179 42.3095 3.26918 42.3095C1.46657 42.3095 0 40.8378 0 39.0288V12.556C0 5.63252 5.63252 0 12.556 0H17.444C24.3675 0 30 5.63269 30 12.556V39.0288C30.0008 40.8378 28.5343 42.3095 26.7317 42.3095ZM20.8662 31.7547C22.6688 31.7547 24.1354 33.2263 24.1354 35.0353V39.0288C24.1354 40.4668 25.3001 41.6367 26.7318 41.6367C28.1636 41.6367 29.3283 40.4668 29.3283 39.0288V12.556C29.3283 6.00353 23.9975 0.67274 17.445 0.67274H12.557C6.00454 0.67274 0.673749 6.00353 0.673749 12.556V39.0288C0.673749 40.4668 1.83843 41.6367 3.27019 41.6367C4.70195 41.6367 5.86663 40.4668 5.86663 39.0288V35.0353C5.86663 33.2265 7.3332 31.7547 9.13581 31.7547C10.9384 31.7547 12.405 33.2263 12.405 35.0353V39.0288C12.405 40.4668 13.5697 41.6367 15.0014 41.6367C16.4332 41.6367 17.5979 40.4668 17.5979 39.0288V35.0353C17.5972 33.2265 19.0636 31.7547 20.8662 31.7547Z" fill="#0049D8"/>
</svg>
