<svg width="26" height="26" viewBox="0 0 26 26" fill="none" xmlns="http://www.w3.org/2000/svg">
<path d="M13 2.36363C9.58344 2.36363 5.90906 3.1707 5.90906 4.94214V20.4132C5.90906 22.1846 9.58344 22.9917 13 22.9917C16.4165 22.9917 20.0909 22.1846 20.0909 20.4132V4.94214C20.0909 3.1707 16.4165 2.36363 13 2.36363ZM18.8016 20.4035C18.7043 20.7613 16.771 21.7024 13 21.7024C9.22889 21.7024 7.29565 20.7613 7.19831 20.4132V19.3998C8.57008 20.0909 10.8359 20.4132 13 20.4132C15.164 20.4132 17.4305 20.0876 18.8016 19.3992V20.4035ZM18.8016 17.825C18.7043 18.1828 16.771 19.1239 13 19.1239C9.22889 19.1239 7.29565 18.1828 7.19831 17.8347V16.8213C8.57008 17.5124 10.8359 17.8347 13 17.8347C15.164 17.8347 17.4305 17.5091 18.8016 16.8207V17.825ZM18.8016 15.2465C18.7043 15.6043 16.771 16.5454 13 16.5454C9.22889 16.5454 7.29565 15.6043 7.19831 15.2562V14.2428C8.57008 14.9338 10.8359 15.2562 13 15.2562C15.164 15.2562 17.4305 14.9306 18.8016 14.2422V15.2465ZM18.8016 12.668C18.7043 13.0258 16.771 13.9669 13 13.9669C9.22889 13.9669 7.29565 13.0258 7.19831 12.6777V11.6643C8.57008 12.3553 10.8359 12.6777 13 12.6777C15.164 12.6777 17.4305 12.3521 18.8016 11.6637V12.668ZM18.8016 10.0895C18.7043 10.4472 16.771 11.3884 13 11.3884C9.22889 11.3884 7.29565 10.4472 7.19831 10.0991V9.0858C8.57008 9.77361 10.8359 10.0991 13 10.0991C15.164 10.0991 17.4305 9.77361 18.8016 9.08515V10.0895ZM18.8016 7.51097C18.7043 7.86874 16.771 8.8099 13 8.8099C9.22889 8.8099 7.29565 7.86874 7.19831 7.52064V6.50729C8.57008 7.19511 10.8359 7.52064 13 7.52064C15.164 7.52064 17.4305 7.19511 18.8016 6.50665V7.51097ZM13 6.23139C9.23469 6.23139 7.3021 5.29281 7.19831 4.95374V4.94987C7.3021 4.59082 9.23469 3.65289 13 3.65289C16.7388 3.65289 18.6727 4.57728 18.8016 4.94214C18.6727 5.307 16.7388 6.23139 13 6.23139Z" fill="white"/>
</svg>
