<svg width="50" height="40" viewBox="0 0 50 40" fill="none" xmlns="http://www.w3.org/2000/svg">
<rect width="40" height="50" rx="4" transform="matrix(0 1 1 0 0 0)" fill="url(#paint0_linear)"/>
<g clip-path="url(#clip0)">
<g filter="url(#filter0_d)">
<path d="M7.5266 16.7924H5.06891C4.62846 16.7924 4.27136 17.1477 4.27136 17.5859V26.1513C4.27136 26.5896 4.62846 26.9449 5.06891 26.9449H7.5266C7.96704 26.9449 8.32414 26.5896 8.32414 26.1513V17.5859C8.32414 17.1477 7.96704 16.7924 7.5266 16.7924Z" fill="white"/>
<path d="M18.4908 18.3853C18.4907 18.3857 18.4911 18.3862 18.4915 18.3861V18.3861C18.4919 18.3861 18.4922 18.3857 18.4922 18.3853C18.4918 18.3815 18.4914 18.3828 18.4908 18.3853Z" fill="white"/>
<path d="M18.4902 18.3876C18.4904 18.3867 18.4897 18.386 18.4889 18.3861V18.3861C18.4881 18.3861 18.4875 18.3869 18.4877 18.3876C18.4887 18.3914 18.4895 18.3899 18.4902 18.3876Z" fill="white"/>
<path d="M23.8414 20.0357C23.7191 19.4136 23.0681 18.9107 22.431 18.9107V18.9107C22.319 18.9107 22.2647 18.7445 22.3406 18.6622C22.6209 18.3577 22.7687 17.9307 22.6916 17.4704C22.5834 16.8255 21.928 16.3031 21.271 16.3031V16.3031C20.7086 16.3031 20.2866 16.8152 20.0313 17.3163C19.9564 17.4633 19.8621 17.5999 19.7513 17.7233C19.499 18.0048 19.1755 18.2223 18.8169 18.3256C18.802 18.3299 18.7924 18.3443 18.7945 18.3596V18.3596C18.7965 18.3749 18.8096 18.3863 18.8249 18.3863H19.6495C19.7839 18.3863 19.9154 18.4423 19.9981 18.5477C20.2213 18.8322 20.0043 19.2191 19.6706 19.2191H17.4107C17.3345 19.2191 17.2594 19.2397 17.1953 19.2805C16.8791 19.4822 16.6831 19.8297 16.6831 20.2128C16.6831 20.5924 16.8755 20.937 17.1865 21.1393L17.1915 21.1426C17.2579 21.185 17.3352 21.2076 17.4141 21.2076H20.186C20.5119 21.2076 20.731 21.578 20.5234 21.8688C20.4435 21.9805 20.3087 22.0405 20.1709 22.0405H17.4151C17.3349 22.0405 17.2564 22.0635 17.1891 22.107L17.1864 22.1087C16.8755 22.3111 16.683 22.6557 16.683 23.0354C16.683 23.4185 16.8791 23.766 17.1952 23.9675C17.2592 24.0084 17.3345 24.0289 17.4105 24.0289H19.3269C19.5992 24.0289 19.8345 24.3063 19.7122 24.6118C19.6502 24.7666 19.4918 24.8618 19.3242 24.8618H17.4189C17.3406 24.8618 17.2629 24.8826 17.1968 24.9246C16.8797 25.1261 16.683 25.4741 16.683 25.858C16.683 26.2486 16.8916 26.6008 17.2092 26.799C17.4336 26.9391 17.7102 26.9452 17.9748 26.9452H20.1617C20.8189 26.9452 21.4742 26.4227 21.5824 25.7778C21.6568 25.3338 21.522 24.9209 21.2608 24.619C21.1793 24.5248 21.2414 24.3375 21.3659 24.3375V24.3375C22.0231 24.3375 22.6784 23.8151 22.7866 23.1701C22.8683 22.6826 22.6977 22.2326 22.3846 21.9258C22.3196 21.8621 22.3617 21.7299 22.4527 21.7299V21.7299C23.3286 21.7298 24.0188 20.9389 23.8414 20.0357Z" fill="white"/>
<path d="M16.4558 18.8014V18.8014C16.815 18.4964 17.0028 17.8072 16.649 17.496L15.6191 16.59C15.4705 16.458 15.4503 16.2234 15.5893 16.0684C15.7258 15.9161 15.9604 15.9027 16.1137 16.0387L17.5602 17.3234C17.7913 17.5287 18.0899 17.6333 18.3979 17.6146C18.7071 17.5973 18.9909 17.461 19.1971 17.2312C19.6246 16.7546 19.5816 16.0263 19.1044 15.6025L16.5671 13.3488C16.1036 12.9373 15.4008 12.9608 14.9664 13.4026L14.9554 13.4132C12.1342 16.0536 11.772 16.3813 11.0998 17.0647C10.3045 17.9405 9.75024 18.7111 9.75024 19.8317V23.2119C9.75024 25.2704 11.4334 26.945 13.5022 26.945C13.9871 26.945 14.4948 26.945 15.0263 26.945C15.5167 26.945 15.846 26.3482 15.846 25.8578V25.8578V25.8578C15.846 25.0012 15.846 23.8918 15.846 23.0352V23.0352V23.0352C15.846 22.1786 15.846 21.0692 15.846 20.2126V20.2126C15.846 19.6664 16.0554 19.1415 16.4558 18.8014Z" fill="white"/>
</g>
</g>
<g clip-path="url(#clip1)">
<g filter="url(#filter1_i)">
<path d="M43.981 16.7924H46.4387C46.8791 16.7924 47.2362 17.1477 47.2362 17.5859V26.1513C47.2362 26.5896 46.8791 26.9449 46.4387 26.9449H43.981C43.5405 26.9449 43.1834 26.5896 43.1834 26.1513V17.5859C43.1834 17.1477 43.5405 16.7924 43.981 16.7924Z" fill="white"/>
<path d="M33.0167 18.3853C33.0169 18.3857 33.0165 18.3862 33.016 18.3861V18.3861C33.0157 18.3861 33.0154 18.3857 33.0154 18.3853C33.0157 18.3815 33.0161 18.3828 33.0167 18.3853Z" fill="white"/>
<path d="M33.0174 18.3876C33.0172 18.3867 33.0179 18.386 33.0187 18.3861V18.3861C33.0195 18.3861 33.02 18.3869 33.0198 18.3876C33.0189 18.3914 33.0181 18.3899 33.0174 18.3876Z" fill="white"/>
<path d="M27.6662 20.0357C27.7884 19.4136 28.4395 18.9107 29.0766 18.9107V18.9107C29.1885 18.9107 29.2428 18.7445 29.167 18.6622C28.8866 18.3577 28.7388 17.9307 28.816 17.4704C28.9242 16.8255 29.5795 16.3031 30.2366 16.3031V16.3031C30.799 16.3031 31.221 16.8152 31.4763 17.3163C31.5512 17.4633 31.6454 17.5999 31.7562 17.7233C32.0085 18.0048 32.332 18.2223 32.6907 18.3256C32.7055 18.3299 32.7151 18.3443 32.7131 18.3596V18.3596C32.711 18.3749 32.698 18.3863 32.6826 18.3863H31.8581C31.7237 18.3863 31.5921 18.4423 31.5095 18.5477C31.2862 18.8322 31.5033 19.2191 31.8369 19.2191H34.0969C34.173 19.2191 34.2482 19.2397 34.3123 19.2805C34.6284 19.4822 34.8245 19.8297 34.8245 20.2128C34.8245 20.5924 34.632 20.937 34.3211 21.1393L34.3161 21.1426C34.2497 21.185 34.1723 21.2076 34.0935 21.2076H31.3215C30.9956 21.2076 30.7765 21.578 30.9842 21.8688C31.064 21.9805 31.1988 22.0405 31.3367 22.0405H34.0924C34.1727 22.0405 34.2512 22.0635 34.3185 22.107L34.3212 22.1087C34.6321 22.3111 34.8246 22.6557 34.8246 23.0354C34.8246 23.4185 34.6285 23.766 34.3124 23.9675C34.2484 24.0084 34.1731 24.0289 34.0971 24.0289H32.1807C31.9084 24.0289 31.6731 24.3063 31.7953 24.6118C31.8574 24.7666 32.0158 24.8618 32.1834 24.8618H34.0886C34.167 24.8618 34.2447 24.8826 34.3108 24.9246C34.6278 25.1261 34.8246 25.4741 34.8246 25.858C34.8246 26.2486 34.616 26.6008 34.2984 26.799C34.0739 26.9391 33.7974 26.9452 33.5328 26.9452H31.3459C30.6887 26.9452 30.0334 26.4227 29.9252 25.7778C29.8508 25.3338 29.9856 24.9209 30.2468 24.619C30.3283 24.5248 30.2662 24.3375 30.1416 24.3375V24.3375C29.4845 24.3375 28.8291 23.8151 28.721 23.1701C28.6393 22.6826 28.8098 22.2326 29.123 21.9258C29.188 21.8621 29.1459 21.7299 29.0549 21.7299V21.7299C28.179 21.7298 27.4887 20.9389 27.6662 20.0357Z" fill="white"/>
<path d="M35.0517 18.8014V18.8014C34.6926 18.4964 34.5048 17.8072 34.8586 17.496L35.8885 16.59C36.0371 16.458 36.0573 16.2234 35.9183 16.0684C35.7817 15.9161 35.5472 15.9027 35.3939 16.0387L33.9473 17.3234C33.7163 17.5287 33.4177 17.6333 33.1097 17.6146C32.8004 17.5973 32.5167 17.461 32.3105 17.2312C31.883 16.7546 31.926 16.0263 32.4032 15.6025L34.9405 13.3488C35.4039 12.9373 36.1068 12.9608 36.5411 13.4026L36.5521 13.4132C39.3734 16.0536 39.7356 16.3813 40.4078 17.0647C41.2031 17.9405 41.7573 18.7111 41.7573 19.8317V23.2119C41.7573 25.2704 40.0742 26.945 38.0054 26.945C37.5205 26.945 37.0128 26.945 36.4813 26.945C35.9908 26.945 35.6616 26.3482 35.6616 25.8578V25.8578V25.8578C35.6616 25.0012 35.6616 23.8918 35.6616 23.0352V23.0352V23.0352C35.6616 22.1786 35.6616 21.0692 35.6616 20.2126V20.2126C35.6616 19.6664 35.4521 19.1415 35.0517 18.8014Z" fill="white"/>
</g>
</g>
<defs>
<filter id="filter0_d" x="0.271362" y="13.0551" width="27.598" height="21.8901" filterUnits="userSpaceOnUse" color-interpolation-filters="sRGB">
<feFlood flood-opacity="0" result="BackgroundImageFix"/>
<feColorMatrix in="SourceAlpha" type="matrix" values="0 0 0 0 0 0 0 0 0 0 0 0 0 0 0 0 0 0 127 0"/>
<feOffset dy="4"/>
<feGaussianBlur stdDeviation="2"/>
<feColorMatrix type="matrix" values="0 0 0 0 0 0 0 0 0 0 0 0 0 0 0 0 0 0 0.25 0"/>
<feBlend mode="normal" in2="BackgroundImageFix" result="effect1_dropShadow"/>
<feBlend mode="normal" in="SourceGraphic" in2="effect1_dropShadow" result="shape"/>
</filter>
<filter id="filter1_i" x="27.6382" y="13.0551" width="19.5981" height="17.8901" filterUnits="userSpaceOnUse" color-interpolation-filters="sRGB">
<feFlood flood-opacity="0" result="BackgroundImageFix"/>
<feBlend mode="normal" in="SourceGraphic" in2="BackgroundImageFix" result="shape"/>
<feColorMatrix in="SourceAlpha" type="matrix" values="0 0 0 0 0 0 0 0 0 0 0 0 0 0 0 0 0 0 127 0" result="hardAlpha"/>
<feOffset dy="4"/>
<feGaussianBlur stdDeviation="2"/>
<feComposite in2="hardAlpha" operator="arithmetic" k2="-1" k3="1"/>
<feColorMatrix type="matrix" values="0 0 0 0 0 0 0 0 0 0 0 0 0 0 0 0 0 0 0.15 0"/>
<feBlend mode="normal" in2="shape" result="effect1_innerShadow"/>
</filter>
<linearGradient id="paint0_linear" x1="20" y1="0" x2="20" y2="50" gradientUnits="userSpaceOnUse">
<stop stop-color="#003479"/>
<stop offset="1" stop-color="#3300FF" stop-opacity="0.65"/>
</linearGradient>
<clipPath id="clip0">
<rect x="4.27136" y="10.25" width="19.598" height="19.5" fill="white"/>
</clipPath>
<clipPath id="clip1">
<rect width="19.598" height="19.5" transform="matrix(-1 0 0 1 47.2362 10.25)" fill="white"/>
</clipPath>
</defs>
</svg>
