<?xml version="1.0" encoding="UTF-8"?>
<svg width="58px" height="53px" viewBox="0 0 58 53" version="1.1" xmlns="http://www.w3.org/2000/svg" xmlns:xlink="http://www.w3.org/1999/xlink">
    <title>icon-profile</title>
    <g id="Page-1" stroke="none" stroke-width="1" fill="none" fill-rule="evenodd">
        <g id="icon-profile" fill-rule="nonzero">
            <path d="M26.4737,0.25 C11.9837,0.25 0.22372,12.01 0.22372,26.5 C0.22372,40.99 11.9837,52.75 26.4737,52.75 C40.9637,52.75 52.7237,40.99 52.7237,26.5 C52.7237,12.01 40.9637,0.25 26.4737,0.25 Z M35.95,16.8925 C38.7587,16.8925 41.0162,19.15 41.0162,21.9588 C41.0162,24.7675 38.7587,27.025 35.95,27.025 C33.1412,27.025 30.8837,24.7675 30.8837,21.9588 C30.8575,19.15 33.1412,16.8925 35.95,16.8925 Z M20.2,12.745 C23.6125,12.745 26.395,15.5275 26.395,18.94 C26.395,22.3525 23.6125,25.135 20.2,25.135 C16.7875,25.135 14.005,22.3525 14.005,18.94 C14.005,15.5013 16.7612,12.745 20.2,12.745 Z M20.2,36.7113 L20.2,46.555 C13.9,44.5863 8.9125,39.73 6.7075,33.535 C9.4637,30.595 16.3412,29.0987 20.2,29.0987 C21.5912,29.0987 23.35,29.3088 25.1875,29.6763 C20.8825,31.96 20.2,34.9788 20.2,36.7113 Z M26.4737,47.5 C25.765,47.5 25.0825,47.4737 24.4,47.395 L24.4,36.7113 C24.4,32.9837 32.1175,31.12 35.95,31.12 C38.7587,31.12 43.615,32.1437 46.03,34.1387 C42.9587,41.935 35.3725,47.5 26.4737,47.5 Z" id="Shape" fill="#0049D8"></path>
            <polygon id="Path" fill="#000000" points="48 48 53 53 58 48"></polygon>
        </g>
    </g>
</svg>