<svg width="50" height="40" viewBox="0 0 50 40" fill="none" xmlns="http://www.w3.org/2000/svg">
<rect width="39.5062" height="50" rx="3" transform="matrix(0 1 1 0 0 0.246948)" fill="url(#paint0_linear)"/>
<g filter="url(#filter0_d)">
<path fill-rule="evenodd" clip-rule="evenodd" d="M22.7481 9.86874C22.4238 9.54977 21.8981 9.54978 21.5739 9.86874L17.7155 13.6641L13.8551 9.86876C13.5307 9.54989 13.0049 9.54989 12.6805 9.86876C12.3562 10.1876 12.3562 10.7046 12.6805 11.0235L16.5413 14.8191L12.6831 18.6143C12.3589 18.9333 12.3589 19.4504 12.6831 19.7694C13.0074 20.0884 13.5331 20.0884 13.8574 19.7694L17.7159 15.9739L21.5737 19.7666C21.8981 20.0855 22.424 20.0855 22.7483 19.7666C23.0727 19.4478 23.0727 18.9308 22.7483 18.6119L18.8901 14.8188L22.7481 11.0238C23.0724 10.7049 23.0724 10.1877 22.7481 9.86874Z" fill="white"/>
</g>
<g filter="url(#filter1_i)">
<path d="M35.809 25.1822C35.809 27.4793 33.9101 29.3703 31.5318 29.3703C29.1535 29.3703 27.2546 27.4793 27.2546 25.1822C27.2546 22.8852 29.1535 20.9941 31.5318 20.9941C33.9101 20.9941 35.809 22.8852 35.809 25.1822Z" stroke="white" stroke-width="2"/>
</g>
<defs>
<filter id="filter0_d" x="8.43726" y="9.62952" width="18.5543" height="18.3791" filterUnits="userSpaceOnUse" color-interpolation-filters="sRGB">
<feFlood flood-opacity="0" result="BackgroundImageFix"/>
<feColorMatrix in="SourceAlpha" type="matrix" values="0 0 0 0 0 0 0 0 0 0 0 0 0 0 0 0 0 0 127 0"/>
<feOffset dy="4"/>
<feGaussianBlur stdDeviation="2"/>
<feColorMatrix type="matrix" values="0 0 0 0 0 0 0 0 0 0 0 0 0 0 0 0 0 0 0.25 0"/>
<feBlend mode="normal" in2="BackgroundImageFix" result="effect1_dropShadow"/>
<feBlend mode="normal" in="SourceGraphic" in2="effect1_dropShadow" result="shape"/>
</filter>
<filter id="filter1_i" x="26.2546" y="19.9941" width="10.5543" height="14.3762" filterUnits="userSpaceOnUse" color-interpolation-filters="sRGB">
<feFlood flood-opacity="0" result="BackgroundImageFix"/>
<feBlend mode="normal" in="SourceGraphic" in2="BackgroundImageFix" result="shape"/>
<feColorMatrix in="SourceAlpha" type="matrix" values="0 0 0 0 0 0 0 0 0 0 0 0 0 0 0 0 0 0 127 0" result="hardAlpha"/>
<feOffset dy="4"/>
<feGaussianBlur stdDeviation="2"/>
<feComposite in2="hardAlpha" operator="arithmetic" k2="-1" k3="1"/>
<feColorMatrix type="matrix" values="0 0 0 0 0 0 0 0 0 0 0 0 0 0 0 0 0 0 0.25 0"/>
<feBlend mode="normal" in2="shape" result="effect1_innerShadow"/>
</filter>
<linearGradient id="paint0_linear" x1="19.7531" y1="0" x2="19.7531" y2="50" gradientUnits="userSpaceOnUse">
<stop stop-color="#003479"/>
<stop offset="1" stop-color="#3300FF" stop-opacity="0.65"/>
</linearGradient>
</defs>
</svg>
