<svg width="93" height="51" viewBox="0 0 93 51" fill="none" xmlns="http://www.w3.org/2000/svg">
<path d="M56.5138 50C54.591 50 53.0266 48.2957 53.0266 46.2006V41.5755C53.0266 39.9102 51.7843 38.5553 50.2571 38.5553C48.7299 38.5553 47.4876 39.9102 47.4876 41.5755V46.2006C47.4876 48.2955 45.9232 50 44.0004 50C42.0777 50 40.5133 48.2957 40.5133 46.2006V41.5755C40.5133 39.9102 39.271 38.5553 37.7438 38.5553C36.2166 38.5553 34.9743 39.9102 34.9743 41.5755V46.2006C34.9743 48.2955 33.4099 50 31.4871 50C29.5643 50 28 48.2957 28 46.2006V15.5415C28 7.52321 34.008 1 41.3931 1H46.6069C53.992 1 60 7.5234 60 15.5415V46.2006C60.0009 48.2957 58.4366 50 56.5138 50ZM50.2573 37.7761C52.1801 37.7761 53.7444 39.4805 53.7444 41.5755V46.2006C53.7444 47.866 54.9867 49.2209 56.514 49.2209C58.0412 49.2209 59.2835 47.866 59.2835 46.2006V15.5415C59.2835 7.95289 53.5973 1.77912 46.608 1.77912H41.3942C34.4048 1.77912 28.7187 7.95289 28.7187 15.5415V46.2006C28.7187 47.866 29.961 49.2209 31.4882 49.2209C33.0154 49.2209 34.2577 47.866 34.2577 46.2006V41.5755C34.2577 39.4807 35.8221 37.7761 37.7449 37.7761C39.6676 37.7761 41.232 39.4805 41.232 41.5755V46.2006C41.232 47.866 42.4743 49.2209 44.0015 49.2209C45.5287 49.2209 46.7711 47.866 46.7711 46.2006V41.5755C46.7703 39.4807 48.3345 37.7761 50.2573 37.7761Z" stroke="#0049D8" stroke-width="2"/>
<path d="M13.1484 9.62891C5.74414 9.62891 1.0791 14.377 1.0791 22.0303C1.0791 29.6836 5.72754 34.415 13.1484 34.415C20.5527 34.415 25.2178 29.6836 25.2178 22.0303C25.2178 14.377 20.5527 9.62891 13.1484 9.62891ZM13.1484 15.2402C16.0869 15.2402 18.0459 17.8799 18.0459 22.0303C18.0459 26.1641 16.1035 28.8037 13.1484 28.8037C10.1934 28.8037 8.25098 26.1641 8.25098 22.0303C8.25098 17.8799 10.21 15.2402 13.1484 15.2402ZM74.6805 9.62891C67.2762 9.62891 62.6111 14.377 62.6111 22.0303C62.6111 29.6836 67.2596 34.415 74.6805 34.415C82.0848 34.415 86.7498 29.6836 86.7498 22.0303C86.7498 14.377 82.0848 9.62891 74.6805 9.62891ZM74.6805 15.2402C77.6189 15.2402 79.5779 17.8799 79.5779 22.0303C79.5779 26.1641 77.6355 28.8037 74.6805 28.8037C71.7254 28.8037 69.783 26.1641 69.783 22.0303C69.783 17.8799 71.742 15.2402 74.6805 15.2402Z" fill="#001B50"/>
<path d="M32.0775 34H39.515L43.6156 26.7783H43.765L47.8822 34H55.7182L48.3305 22.0303V21.8975L55.7514 10.0439H47.9486L44.1635 17.6807H44.0307L40.2621 10.0439H32.0609L39.1332 21.8643V21.9971L32.0775 34Z" fill="#0049D8"/>
</svg>
